<svg xmlns="http://www.w3.org/2000/svg" width="30" height="30" viewBox="0 0 30 30">
  <defs>
    <style>
      .cls-1 {
        fill: #fff;
        fill-rule: evenodd;
      }
    </style>
  </defs>
  <path id="call" class="cls-1" d="M331.065,105a14.986,14.986,0,0,1,6.371,1.053h0.175v0.058l0.293,0.059v0.058l0.233,0.059v0.058h0.117v0.059h0.176v0.059l0.35,0.117v0.058l0.234,0.059,0.059,0.117h0.116v0.058h0.117v0.059h0.117v0.058h0.117l0.059,0.117h0.117v0.059h0.116l0.059,0.117h0.117l0.058,0.117h0.117l0.059,0.117h0.116v0.058l0.176,0.059,0.058,0.117h0.117l0.117,0.175h0.117l0.117,0.176h0.117l0.175,0.234h0.117l0.175,0.234h0.117l0.585,0.644h0.117l0.058,0.117,0.234,0.175v0.117l0.584,0.527v0.117l0.293,0.234v0.117l0.234,0.176v0.117l0.175,0.117v0.117l0.175,0.117v0.117l0.117,0.058,0.059,0.176h0.058v0.117l0.117,0.058v0.117l0.117,0.059v0.117l0.117,0.058,0.117,0.352,0.117,0.058v0.117h0.058v0.117h0.058V112.9h0.059v0.117l0.117,0.059,0.175,0.526h0.059v0.117h0.058l0.117,0.351h0.058v0.176h0.059v0.117h0.058l0.7,2.224q0.145,0.877.292,1.755v0.7h0.058a7.758,7.758,0,0,1-.058,1.873v0.526l-0.117,1H346.73v0.351h-0.059v0.293h-0.058v0.292l-0.7,2.224h-0.058v0.117h-0.059v0.176h-0.058l-0.117.351h-0.058v0.117H345.5v0.175h-0.058v0.117l-0.117.059c-0.02.078-.039,0.156-0.059,0.234H345.21v0.117h-0.059v0.117h-0.058V127.3h-0.058v0.117l-0.117.058-0.117.352h-0.059l-0.058.175-0.117.059v0.117l-0.117.058v0.117h-0.058l-0.059.176-0.117.058V128.7l-0.175.117v0.117l-0.175.117v0.117l-0.234.176v0.117l-0.293.234v0.117l-0.642.585v0.117l-0.117.059-0.117.175h-0.117l-0.585.644h-0.117l-0.175.234h-0.117l-0.175.234H341.06l-0.117.176h-0.117l-0.117.175h-0.117l-0.058.117h-0.117l-0.059.117h-0.116l-0.059.117h-0.117l-0.058.117-0.234.059c-0.02.039-.039,0.078-0.058,0.117l-0.234.058-0.059.117h-0.117v0.059h-0.117v0.058h-0.116v0.059h-0.117v0.058h-0.117l-0.059.117-0.526.176v0.059h-0.117v0.058l-0.233.059v0.058h-0.176v0.059h-0.117v0.058h-0.175v0.059h-0.117v0.058l-0.351.059v0.058h-0.175V134.2h-0.175v0.058h-0.176v0.059h-0.175v0.058l-0.409.059V134.5h-0.234v0.059H335.39v0.058H335.1v0.059h-0.292v0.058h-0.293v0.059H334.1v0.058h-0.467v0.059h-0.7v0.058a7.734,7.734,0,0,1-1.87-.058h-0.7l-1.753-.293-2.221-.7v-0.058h-0.117v-0.059H326.1v-0.058l-0.35-.117v-0.059h-0.117V133.5h-0.176v-0.059l-0.233-.059v-0.058H325.1l-0.059-.117h-0.117v-0.059h-0.116v-0.058h-0.117v-0.059h-0.117l-0.059-.117-0.35-.117-0.059-.117h-0.117l-0.058-.117h-0.117l-0.059-.117h-0.117v-0.058l-0.175-.059-0.058-.117h-0.117l-0.117-.175h-0.117l-0.117-.176h-0.117l-0.175-.234h-0.117l-0.234-.293H322.18l-0.584-.643h-0.117l-0.059-.117-0.175-.117v-0.117l-0.585-.527V129.7l-0.292-.234v-0.117l-0.234-.176v-0.117l-0.175-.117v-0.117l-0.175-.117v-0.117l-0.117-.058-0.059-.176H319.55v-0.117l-0.117-.058v-0.117L319.316,128v-0.117l-0.117-.058v-0.117h-0.058V127.59l-0.117-.058v-0.117h-0.059V127.3h-0.058v-0.117h-0.059v-0.117H318.79v-0.117l-0.117-.059v-0.117h-0.058c-0.02-.078-0.039-0.156-0.059-0.234H318.5v-0.175h-0.059v-0.117h-0.058l-0.117-.351h-0.058v-0.176h-0.059V125.6h-0.058v-0.176H318.03v-0.117h-0.058c-0.02-.117-0.039-0.234-0.059-0.351h-0.058v-0.175H317.8v-0.176h-0.058v-0.175h-0.059v-0.176h-0.058v-0.234h-0.058v-0.175H317.5v-0.235h-0.058v-0.234h-0.059v-0.292h-0.058v-0.293H317.27v-0.351h-0.058V122.09h-0.059v-0.468H317.1v-0.7h-0.058a7.758,7.758,0,0,1,.058-1.873v-0.7h0.058l0.117-1.17h0.059v-0.293h0.058V116.59h0.059v-0.234H317.5v-0.234h0.059v-0.176h0.058v-0.234h0.058v-0.176h0.059v-0.175H317.8v-0.176h0.059V115.01h0.058c0.02-.117.039-0.234,0.059-0.351h0.058v-0.117h0.059v-0.176h0.058v-0.117h0.059v-0.176h0.058c0.019-.078.039-0.156,0.058-0.234h0.059v-0.117h0.058v-0.175H318.5c0.019-.078.039-0.156,0.058-0.234h0.059c0.019-.078.039-0.156,0.058-0.234l0.117-.059V112.9h0.058v-0.117h0.059v-0.117h0.058v-0.117h0.059v-0.117l0.117-.058c0.019-.078.039-0.157,0.058-0.235l0.117-.058v-0.117l0.117-.059v-0.117l0.117-.058v-0.117h0.058l0.059-.176,0.117-.058v-0.117l0.175-.117v-0.117l0.175-.117V110.8l0.234-.176V110.5l0.292-.234v-0.117l0.585-.527v-0.117l0.175-.117,0.059-.117H321.6l0.584-.643H322.3l0.234-.293h0.117l0.175-.234h0.117l0.117-.176,0.175-.058,0.059-.117h0.117l0.058-.117h0.117c0.02-.039.039-0.078,0.058-0.117h0.117l0.059-.117h0.117l0.058-.117h0.117l0.059-.117h0.116V107.11H324.4l0.059-.117h0.117v-0.058h0.117v-0.059h0.117v-0.058h0.116v-0.059h0.117l0.059-.117,0.234-.058v-0.059l0.233-.058v-0.059h0.176v-0.059h0.117v-0.058l0.233-.059v-0.058h0.176v-0.059h0.117v-0.058h0.175V106h0.117V105.94l0.351-.059v-0.058h0.175v-0.059h0.175v-0.058h0.176v-0.059h0.175v-0.058h0.234V105.53h0.175v-0.058h0.234v-0.059h0.234v-0.058l0.584-.059v-0.058h0.351v-0.059H329.9v-0.058h0.467v-0.059A2.254,2.254,0,0,0,331.065,105Zm0.117,1.755a1.687,1.687,0,0,1-.643.059H330.48v0.058h-0.467v0.059h-0.351v0.058H329.37v0.059l-0.526.058v0.059H328.61v0.058h-0.176v0.059H328.2v0.058h-0.176V107.4H327.85v0.058h-0.175v0.059l-0.351.058v0.059h-0.117V107.7h-0.175v0.059h-0.117v0.058h-0.176v0.059l-0.35.117v0.058h-0.117v0.059h-0.117v0.058h-0.117v0.059h-0.117v0.058H325.8v0.059h-0.117V108.4H325.57v0.058h-0.117c-0.019.039-.038,0.078-0.058,0.117l-0.234.059-0.058.117-0.234.058c-0.02.039-.039,0.078-0.058,0.117h-0.117l-0.059.117h-0.117l-0.117.176h-0.117l-0.058.117h-0.117l-0.117.175h-0.117l-0.175.234h-0.117l-0.292.351h-0.117l-0.526.586-0.526.468v0.117l-0.351.292v0.117l-0.234.176v0.117l-0.175.117V112.2l-0.175.117v0.117l-0.117.059c-0.02.058-.039,0.117-0.059,0.175h-0.058v0.117l-0.117.059v0.117l-0.117.058-0.117.351-0.117.059v0.117h-0.058v0.117h-0.059v0.117H320.31V113.9h-0.059v0.117h-0.058v0.117h-0.059v0.117h-0.058v0.117h-0.058l-0.117.351h-0.059v0.176h-0.058v0.117h-0.059v0.175h-0.058V115.3h-0.059c-0.019.117-.039,0.234-0.058,0.351h-0.059v0.176h-0.058V116h-0.058v0.176h-0.059c-0.019.137-.039,0.273-0.058,0.41H319.2c-0.019.156-.039,0.312-0.058,0.468h-0.059v0.292h-0.058v0.293h-0.059v0.351h-0.058q-0.03.585-.059,1.17H318.79a6.484,6.484,0,0,0,.058,1.639q0.03,0.585.059,1.17h0.058v0.293h0.059v0.351h0.058v0.292h0.059v0.234H319.2v0.234h0.059v0.176h0.058c0.02,0.136.039,0.273,0.059,0.41h0.058v0.175h0.058v0.176h0.059v0.175h0.058v0.176h0.059v0.117h0.058v0.175h0.059v0.117h0.058v0.176H319.9l0.117,0.351h0.058v0.117h0.058v0.117h0.059v0.117h0.058v0.117h0.059v0.117h0.058V126.3h0.059v0.117h0.058v0.117L320.6,126.6c0.02,0.078.039,0.156,0.058,0.234l0.117,0.058c0.02,0.078.039,0.156,0.059,0.234l0.117,0.059V127.3h0.058c0.02,0.058.039,0.117,0.059,0.175l0.117,0.059v0.117l0.116,0.059c0.02,0.058.039,0.117,0.059,0.175L321.537,128v0.117l0.176,0.117c0.019,0.059.039,0.117,0.058,0.176l0.351,0.292v0.117l0.584,0.527,0.468,0.527h0.117l0.292,0.351H323.7l0.175,0.234h0.117l0.117,0.175h0.117l0.058,0.117H324.4l0.117,0.176h0.117l0.059,0.117h0.117c0.019,0.039.038,0.078,0.058,0.117l0.234,0.058,0.058,0.117,0.234,0.059c0.02,0.039.039,0.078,0.058,0.117l0.936,0.41v0.058l0.35,0.117v0.059h0.176v0.058h0.117v0.059h0.175v0.058h0.117v0.059H327.5v0.058h0.176v0.059h0.175v0.058h0.175v0.059H328.2v0.058l0.409,0.059V132.8l0.76,0.117v0.059h0.35v0.058h0.293v0.059h0.467v0.058h0.7a6.416,6.416,0,0,0,1.636.059v-0.059h0.7v-0.058h0.467v-0.059l0.643-.058v-0.059h0.293v-0.058l0.467-.059V132.74l0.409-.059v-0.058h0.176v-0.059h0.175v-0.058h0.175v-0.059l0.351-.058V132.33h0.117v-0.058h0.175v-0.059h0.117v-0.058h0.176V132.1l0.35-.117v-0.058h0.117v-0.059h0.117V131.8h0.117v-0.059h0.117v-0.058H338.2v-0.059h0.117V131.57h0.117v-0.059h0.117c0.019-.039.038-0.078,0.058-0.117l0.234-.059,0.058-.117,0.234-.058c0.02-.039.039-0.078,0.058-0.117h0.117v-0.059l0.176-.058,0.058-.117h0.117l0.117-.176h0.117l0.117-.175h0.117l0.175-.234h0.117l0.292-.351h0.117l0.526-.586,0.526-.468V128.7l0.351-.292v-0.117l0.234-.176V128l0.175-.117v-0.117l0.117-.058V127.59l0.175-.117v-0.117l0.117-.058v-0.117l0.117-.059c0.02-.078.039-0.156,0.059-0.234l0.116-.058c0.02-.078.039-0.156,0.059-0.234l0.117-.059V126.42h0.058V126.3h0.059v-0.117h0.058v-0.117h0.059v-0.117h0.058v-0.117h0.059v-0.117h0.058V125.6h0.058l0.117-.351h0.059v-0.176h0.058v-0.117h0.059q0.263-.789.526-1.58c0.019-.175.039-0.351,0.058-0.526h0.059v-0.234h0.058v-0.351h0.059v-0.293h0.058q0.029-.585.058-1.17h0.059a6.438,6.438,0,0,0-.059-1.639q-0.029-.585-0.058-1.17h-0.058V117.7h-0.059V117.35h-0.058v-0.292h-0.059v-0.234H344.8V116.59h-0.059v-0.176h-0.058c-0.02-.136-0.039-0.273-0.059-0.41h-0.058v-0.175h-0.058v-0.176H344.45v-0.175h-0.058V115.3h-0.059v-0.117h-0.058V115.01h-0.059v-0.117h-0.058v-0.176H344.1l-0.117-.351h-0.058v-0.117h-0.058v-0.117h-0.059v-0.117h-0.058V113.9H343.69v-0.117h-0.058v-0.117h-0.059v-0.117h-0.058V113.43a13.327,13.327,0,0,0-3.507-3.921l-0.117-.175-0.175-.059-0.059-.117H339.54l-0.058-.117-0.176-.058v-0.059h-0.117c-0.019-.039-0.038-0.078-0.058-0.117l-0.175-.058V108.69l-0.351-.117c-0.02-.039-0.039-0.078-0.058-0.117H338.43V108.4h-0.117v-0.059H338.2V108.28h-0.117v-0.058h-0.117v-0.059h-0.117v-0.058h-0.117v-0.059h-0.117v-0.058l-0.35-.117v-0.059h-0.176v-0.058h-0.117V107.7h-0.175v-0.058h-0.117v-0.059l-0.351-.058v-0.059H336.15V107.4h-0.175v-0.059H335.8v-0.058h-0.175v-0.059l-0.468-.058A13.309,13.309,0,0,0,331.182,106.759Zm-3.624,5.383a1.558,1.558,0,0,1,1.519.82l0.117,0.058v0.117h0.059v0.117h0.058v0.117h0.059v0.117h0.058v0.117l0.117,0.059v0.117H329.6V113.9h0.059v0.117h0.058v0.117h0.059v0.117a9.075,9.075,0,0,1,1.169,2.458,2.034,2.034,0,0,1-.585,1.4,1.015,1.015,0,0,0-.409.468h0.059a2.385,2.385,0,0,0,.292.644l0.175,0.117v0.117l0.176,0.117v0.117l0.35,0.293V120.1l0.643,0.585,0.234,0.292H332l0.292,0.351h0.117l0.175,0.234H332.7a1.648,1.648,0,0,0,.819.469,1.693,1.693,0,0,1,.35-0.352,1.566,1.566,0,0,1,1.754-.643h0.234l1.227,0.643,0.059,0.117h0.117v0.059h0.116l0.059,0.117,0.351,0.117,0.058,0.117,0.351,0.117,0.058,0.117,0.234,0.059,0.059,0.117,0.233,0.058,0.059,0.117h0.117l0.643,0.585v0.117h0.058a1.874,1.874,0,0,1,.175,1.054h-0.058v0.175h-0.058l-0.117.351-0.234.176v0.117l-0.7.644a7.189,7.189,0,0,1-2.162,1.872h-0.234a2.648,2.648,0,0,1-1.461,0l-0.76-.117v-0.058H333.87v-0.059H333.7V127.59H333.52v-0.058h-0.176v-0.059h-0.117v-0.058l-0.292-.059V127.3l-0.351-.117v-0.059h-0.116v-0.058h-0.117v-0.059l-0.234-.058v-0.059H332V126.83h-0.117v-0.059h-0.117l-0.058-.117-0.351-.117-0.058-.117h-0.117l-0.059-.117-0.234-.058c-0.039-.059-0.078-0.117-0.116-0.176l-0.176-.058v-0.059H330.48l-0.058-.117h-0.117l-0.117-.176h-0.117l-0.117-.175h-0.117l-0.117-.176H329.6l-0.116-.175-0.176-.059-0.292-.351H328.9l-0.526-.585h-0.117l-0.351-.41-0.175-.117v-0.117l-0.468-.409v-0.059l-0.116-.058v-0.117l-0.351-.293v-0.117l-0.234-.175v-0.117l-0.175-.117v-0.117l-0.176-.118-0.058-.175-0.117-.059v-0.117l-0.117-.058c-0.019-.059-0.039-0.117-0.058-0.176H325.8V121.1l-0.117-.058c-0.019-.078-0.039-0.156-0.058-0.234l-0.117-.059c-0.02-.078-0.039-0.156-0.059-0.234l-0.116-.058v-0.117h-0.059v-0.117H325.22V120.1h-0.059v-0.117l-0.117-.059v-0.117h-0.058c-0.02-.078-0.039-0.156-0.059-0.234h-0.058V119.4h-0.058c-0.02-.078-0.039-0.156-0.059-0.234h-0.058v-0.175h-0.059v-0.117h-0.058V118.7h-0.059v-0.117H324.46c-0.02-.136-0.039-0.273-0.059-0.409h-0.058v-0.176h-0.059V117.76h-0.058v-0.234h-0.058v-0.293h-0.059v-0.351h-0.058v-1.053a5.706,5.706,0,0,1,1.87-2.4q0.468-.5.935-1h0.117l0.059-.117h0.117V112.26l0.409-.059v-0.059Zm0.117,1.931q-0.936.966-1.871,1.931a4.583,4.583,0,0,0,.468,2.166c0.019,0.117.039,0.234,0.058,0.351h0.059c0.019,0.078.039,0.156,0.058,0.234h0.059v0.117h0.058c0.02,0.1.039,0.195,0.058,0.292l0.117,0.059v0.117H326.8v0.117h0.058v0.117h0.059v0.117h0.058c0.02,0.058.039,0.117,0.059,0.175l0.117,0.059v0.117l0.116,0.059v0.117h0.059l0.058,0.175,0.117,0.059v0.117l0.117,0.058,0.059,0.176,0.175,0.117v0.117l0.175,0.117v0.117l0.293,0.234v0.117l0.409,0.351v0.117l0.7,0.644,0.526,0.585h0.117l0.351,0.409,0.175,0.059,0.117,0.176h0.117l0.175,0.234,0.176,0.058,0.058,0.117h0.117c0.02,0.039.039,0.078,0.058,0.117h0.117l0.117,0.176h0.117l0.059,0.117h0.117L332,124.9l0.234,0.058,0.058,0.117,0.234,0.059c0.02,0.039.039,0.078,0.058,0.117l0.351,0.117v0.058l0.351,0.117V125.6l0.292,0.058v0.059H333.7v0.059h0.175v0.058h0.176v0.059h0.175v0.058H334.4v0.059h0.176v0.058h0.234v0.059l1.169,0.058v-0.058a1.039,1.039,0,0,0,.467-0.41l0.76-.7,0.117-.176a1.214,1.214,0,0,0,.585-0.585c-0.119-.061-0.239-0.17-0.351-0.234h-0.117l-0.059-.117-0.233-.058-0.059-.118-0.234-.058-0.058-.117-0.351-.117-0.058-.117h-0.117V123.26H336.15l-0.058-.117-0.234-.058-0.059-.117h-0.117v-0.059h-0.116v-0.058h-0.117v-0.059a0.423,0.423,0,0,0-.234-0.058l-0.877.936h-0.117v0.058a0.728,0.728,0,0,0-.175.118l-0.7.058v-0.058h-0.233v-0.059h-0.176v-0.059l-0.351-.117v-0.058h-0.116v-0.059l-0.234-.058v-0.059l-0.176-.058L332,123.2h-0.117l-0.058-.117h-0.117l-0.117-.176h-0.117l-0.117-.175H331.24l-0.234-.293h-0.117l-0.818-.878-0.526-.468v-0.117l-0.292-.234c-0.02-.058-0.039-0.117-0.059-0.175l-0.117-.059v-0.117l-0.116-.058v-0.117l-0.117-.059v-0.117l-0.117-.058c-0.02-.059-0.039-0.118-0.059-0.176H328.61c-0.02-.078-0.039-0.156-0.059-0.234h-0.058l-0.117-.351h-0.058v-0.176h-0.059V118.93H328.2v-0.175h-0.059v-0.293h-0.058a0.1,0.1,0,0,1,.058-0.117v-0.292H328.2v-0.176h0.058V117.76h0.059v-0.117l0.116-.059,0.527-.585,0.175-.117v-0.175a2.584,2.584,0,0,1-.351-0.7h-0.058v-0.117h-0.059V115.77l-0.117-.058-0.117-.351h-0.058v-0.117h-0.058v-0.117h-0.059V115.01H328.2v-0.117h-0.059v-0.117l-0.117-.059V114.6h-0.058A1.182,1.182,0,0,0,327.675,114.073Z" transform="translate(-317 -105)"/>
</svg>
