<svg width="38" height="50" viewBox="0 0 38 50" fill="none" xmlns="http://www.w3.org/2000/svg">
<path fill-rule="evenodd" clip-rule="evenodd" d="M17.4651 0.0322539C20.8036 -0.164757 24.1333 0.543484 27.1026 2.08218H27.2975V2.17962H27.4924V2.28081H27.6872V2.37824H27.8821V2.47568H28.077L28.1744 2.6718L28.5629 2.76924V2.86667L28.8552 2.96411L28.9527 3.15898H29.1475V3.25642L29.4399 3.35511L29.5373 3.54999H29.7309L29.9258 3.8423H30.1207L30.413 4.23329H30.6079L31.0951 4.81792H31.2887L32.1631 5.79478L32.6503 6.18454V6.37941L33.2337 6.86784V7.06271L33.526 7.25759V7.45372L33.8183 7.64859V7.84347L34.1106 8.03833V8.23445L34.3042 8.33189L34.4016 8.62422H34.4991V8.81908L34.694 8.91652L34.8888 9.50238L35.0837 9.59982V9.79471H35.1812V9.99083H35.2786V10.1857H35.376V10.3806H35.4735V10.5755H35.5709V10.7753H35.6671L35.862 11.3599H35.9631V11.6498H36.0606V11.8446H36.158L36.2555 12.4305H36.3529V12.7228H36.4503V12.9177H36.5478V13.3087H36.6452V13.601H36.7427V13.992C37.5234 16.4871 37.6575 19.1396 37.1324 21.7008V22.2866H37.0349V22.7738H36.9375V23.1648H36.8376V23.6533H36.7401L36.5453 24.7263H36.4478V25.0161H36.3504V25.3097H36.253V25.602H36.1555V25.8906H36.0581L35.9607 26.4764H35.8632V26.6713H35.7658L35.6683 27.2572H35.5722V27.4521H35.476V27.7456H35.3785L35.2811 28.1354H35.1836V28.4277H35.0887L34.9913 28.8187H34.8938L34.7964 29.3059H34.699L34.5041 29.8917H34.4066V30.0866H34.3092V30.2827H34.2143V30.4776H34.1181V30.6725H34.0206V30.8674H33.9232V31.0635H33.8258V31.2621H33.7283V31.457L33.5335 31.5544V31.7493H33.436V31.9454H33.3399V32.1365H33.2424V32.3314L33.0475 32.4288V32.6362H32.9501V32.8311H32.8527V33.026H32.7552V33.2208H32.6528L32.5553 33.5144L32.3605 33.6118L32.2631 34.0016L32.0682 34.099L31.9707 34.49H31.8733L31.7758 34.7823L31.581 34.8798L31.4835 35.2708L31.2887 35.3682V35.5631H31.1925L31.0951 35.8566L30.9002 35.9541V36.1489L30.7053 36.2464V36.4412H30.6079L30.5104 36.7348L30.3155 36.8322V37.0271L30.0233 37.222V37.4169H29.9258L29.8284 37.7104L29.6347 37.8079V38.0027L29.4399 38.1002L29.3424 38.3937L29.0501 38.5886V38.7835L28.8552 38.8809V39.077L28.5629 39.2719V39.4668L28.2706 39.6617V39.8566C28.1744 39.9228 28.077 39.9815 27.9795 40.0527V40.2475L27.5898 40.5399V40.736L27.2001 41.0283V41.2232L26.8103 41.5167V41.7116L26.4218 42.0039V42.1988L25.9346 42.5898V42.7847L25.6423 42.9795V43.077L25.4474 43.1757V43.3705L24.8641 43.8577V44.0538L24.182 44.6385C23.2959 45.7881 22.3193 46.865 21.2614 47.8589C20.6439 48.6707 19.8857 49.365 19.0229 49.9088V50H18.4382C18.3268 49.9032 18.1928 49.8361 18.0485 49.8051L17.951 49.6103L17.5625 49.3167C17.0429 48.7645 16.5236 48.2116 16.0048 47.6578L15.2253 46.9745V46.7796L14.0573 45.7065V45.5104C13.765 45.2506 13.4735 44.9903 13.1828 44.7297V44.5348L12.8905 44.3399L12.6957 44.0476H12.6032V43.8515L12.0186 43.3643V43.1694L11.8237 43.0707C11.76 42.9733 11.6988 42.8758 11.6301 42.7784H11.5327V42.5835L11.0455 42.1925V41.9977L10.8506 41.9002V41.8028L10.6557 41.7054V41.5055L10.2672 41.2119V41.0171L9.87749 40.7247V40.5286L9.48772 40.2363V40.0414L9.19544 39.8453V39.6504L8.90312 39.4556V39.2607L8.61205 39.0658L8.51461 38.7722L8.31973 38.6748V38.4799L8.12489 38.3825V38.1864L7.83256 37.9915V37.7966L7.63768 37.6992V37.5081L7.34536 37.3119V37.1171L7.15174 37.0196L7.0543 36.7273H6.95685V36.5312L6.76201 36.4338V36.2389L6.56713 36.1415V35.9466L6.37225 35.8491V35.653L6.17737 35.5556V35.3607L5.98248 35.2595L5.88504 34.8685L5.69142 34.7711V34.5762L5.49658 34.4788L5.39914 34.0878H5.29544L5.198 33.7955L5.00312 33.698L4.90568 33.307L4.71084 33.2096V33.0147H4.6084V32.8198H4.51096V32.6362H4.41352V32.4401L4.2199 32.3427V32.1365H4.12246V31.9417H4.02502V31.7455H3.92758V31.5507L3.73395 31.4582V31.2621H3.63651V31.0672H3.53907V30.8711H3.44163V30.6762H3.34419V30.4813H3.24675V30.2877H3.14935V30.0916H3.0519V29.8967H2.95446C2.88951 29.7018 2.82955 29.507 2.76084 29.3109H2.6634L2.56596 28.8237H2.47225L2.37481 28.4327H2.27741V28.1391H2.17997L2.08253 27.7494H1.98509V27.4558H1.88765V27.2647H1.79021V26.9724H1.69277V26.7762H1.59533L1.49788 26.1916H1.40044V25.8906H1.30426V25.6033H1.20682V25.3109H1.11064V25.0161H1.0132V24.7238H0.915756V24.3328H0.818315V24.0418H0.720912L0.623472 23.1673H0.526031V22.7676H0.42859V22.2804H0.331149V21.6945H0.236225L0.138784 20.0356H0.0413431C-0.0368163 19.1893 -0.00405636 18.3363 0.138784 17.4985L0.236225 15.7421H0.333665V15.2537H0.431068V14.7727H0.528509V14.2843H0.62595V13.8983H0.72339V13.6047H0.820831V13.215H0.918272L1.01571 12.6291H1.11064V12.4342H1.20808L1.30552 11.8484H1.4017V11.6498H1.49914V11.3562H1.59658L1.79146 10.7716H1.88891V10.5755H1.98509V10.3806H2.08253V10.1857H2.17997V9.99083H2.27741V9.79471H2.37481V9.59982L2.56969 9.50238L2.76458 8.91652L2.9582 8.81908V8.62422H3.05564L3.15308 8.33189L3.34796 8.23445V8.03833L3.54281 7.94089L3.64025 7.64859L3.93257 7.45372V7.25759L4.12745 7.16015L4.22489 6.86784L4.80824 6.37941V6.18454L5.29544 5.79478L6.16989 4.81792H6.36474L6.85194 4.23329H7.04682L7.2417 3.93973H7.43533L7.63017 3.64742H7.82505L8.01993 3.35511H8.21482L8.31226 3.15898L8.60454 3.06155V2.96411H8.79942C8.83065 2.89915 8.86313 2.83919 8.89561 2.76924L9.48025 2.57437L9.57769 2.37824L10.1623 2.18337V2.08592H10.3547V1.98849H10.5495V1.89105H10.7444V1.79362L11.329 1.59749V1.50006H11.6214V1.40637H11.815V1.30893L12.3996 1.21149V1.11405H12.6032V1.01662L13.5763 0.820491V0.72306H13.8687V0.625619H14.3558V0.528188H14.7456V0.430747H15.2265V0.333306H15.7137V0.235875C16.3035 0.237624 16.8914 0.169269 17.4651 0.0322539ZM18.1459 8.32816C17.8285 8.41065 17.5002 8.44351 17.1728 8.42558V8.52677H16.6856V8.62422H16.1997V8.72164H15.9073V8.81908L15.2253 8.91652V9.01396H15.0304V9.11264H14.7393V9.21008L14.1547 9.40496V9.50238H13.9599V9.59982L13.3752 9.79471L13.2778 9.99083H13.0841L12.9867 10.1857H12.7919L12.6944 10.3806H12.4995L12.3047 10.6741H12.1098L11.2354 11.6498L10.6507 12.1369V12.3331L10.3547 12.5242V12.7191L10.161 12.8165L10.0636 13.1101H9.9662V13.3049L9.77131 13.4024L9.57643 13.9882H9.48025V14.1831H9.38281L9.18793 14.769H9.09049V15.0613H8.99305V15.2562H8.89561C8.86313 15.4835 8.83065 15.7121 8.79942 15.9395C8.19234 17.7773 8.19234 19.7617 8.79942 21.5996C8.83065 21.8269 8.86313 22.0555 8.89561 22.2829H8.99305V22.4778H9.09049V22.7676H9.18793L9.38281 23.3535H9.48025V23.5483H9.57769L9.77257 24.1342L9.96742 24.2316V24.4265H10.0649L10.1623 24.7201L10.3559 24.8175V25.0161L10.6482 25.211V25.4071L11.7201 26.3827L12.1086 26.8699H12.3034L12.4983 27.1635H12.6932L12.7906 27.3584H12.9855L13.0829 27.5532L13.374 27.6507V27.7494H13.5688V27.8468H13.7637V27.9442H13.9586V28.0417H14.1535V28.1391H14.3521V28.2366L14.7419 28.334V28.4314H15.0329V28.5301H15.2265V28.6276L15.9086 28.725V28.8224H16.2009V28.9199H16.6868V29.0135H17.174V29.111H18.1471V29.2084H19.3151V29.111H20.2895V29.0135H20.7754V28.9161H21.2627V28.8187H21.6524V28.7262H21.9447V28.6288H22.237V28.5314H22.4306V28.4327H22.7217V28.3352L23.3063 28.1404V28.0429H23.5012V27.9455L24.0845 27.7506L24.182 27.5545H24.3769V27.457L24.6692 27.3596L24.7666 27.1647H24.9615L25.1564 26.8712H25.345L25.8322 26.2866L26.8053 25.4121V25.216L27.0976 25.0211V24.8263L27.2925 24.7288V24.5339L27.4874 24.4353V24.2404L27.6822 24.1429L27.8771 23.5571H27.9746V23.3622H28.072C28.137 23.1673 28.2015 22.972 28.2656 22.7763H28.3631V22.4803C28.851 21.3049 29.1022 20.0447 29.1022 18.772C29.1022 17.4994 28.851 16.2392 28.3631 15.0638V14.7727H28.2656C28.2023 14.5762 28.1378 14.3809 28.072 14.1869H27.9746V13.992H27.8771L27.6822 13.4061L27.4874 13.3087V13.1138H27.3899L27.2925 12.8202L27.0976 12.7228V12.5242L26.8053 12.3293V12.1332L25.7348 11.1576L25.345 10.6704H25.1514L24.9565 10.3768H24.7616L24.6642 10.182H24.4706L24.3731 9.98707L24.0808 9.88965V9.79095L23.4975 9.59609V9.50114H23.3026V9.40121L22.7179 9.20632V9.1089H22.4257C21.0699 8.55048 19.6114 8.28525 18.1459 8.33065V8.32816Z" fill="#090B13"/>
</svg>
