<svg width="30" height="30" viewBox="0 0 30 30" fill="none" xmlns="http://www.w3.org/2000/svg">
<circle cx="15" cy="15" r="15" fill="#090B13"/>
<path fill-rule="evenodd" clip-rule="evenodd" d="M23.7995 9.34174C23.8101 9.39406 23.835 9.4424 23.8715 9.48138H23.906C23.9611 9.60218 23.9858 9.73463 23.978 9.86718H23.9427C23.9312 9.9262 23.9197 9.9845 23.9075 10.0428H23.8729C23.8361 10.0818 23.8111 10.1305 23.8009 10.1832L23.5907 10.2551V10.2904H23.4849C23.3103 10.3902 23.1207 10.4612 22.9235 10.5006V14.6033C23.1161 14.668 23.2939 14.7706 23.4463 14.905C23.5987 15.0394 23.7227 15.2029 23.8111 15.3859C23.8994 15.5689 23.9502 15.7677 23.9606 15.9707C23.971 16.1736 23.9407 16.3766 23.8715 16.5676V16.6727H23.8362C23.8124 16.7447 23.7894 16.8131 23.7642 16.8829H23.7297V16.9549L23.6239 17.0268V17.0988L23.4835 17.2039L23.4115 17.3097H23.3395L23.2676 17.4148L23.0567 17.4868V17.522H22.9847V17.5573L22.7738 17.5919V17.6271H22.5636V17.6509C22.4454 17.6669 22.3251 17.6548 22.2124 17.6156H22.0094V17.5789L21.7992 17.5444V17.5091L21.6553 17.4738V17.4422L21.5149 17.4069C21.4911 17.3716 21.4681 17.3349 21.4429 17.3018H21.3709L21.299 17.196L21.1586 17.0909V17.0189L21.0535 16.9469V16.875H21.0183C20.9945 16.803 20.9715 16.7346 20.9463 16.6648H20.9117C20.8995 16.5928 20.888 16.5244 20.8765 16.4539H20.8412V16.2437H20.8059C20.7774 16.0537 20.8023 15.8596 20.8779 15.683V15.5426H20.9132V15.4707H20.9477V15.3987H20.983V15.3267H21.0183V15.2547H21.0535V15.1828C21.2523 14.9033 21.5349 14.6943 21.8604 14.5861V10.9044L21.1233 11.1498V11.1851H21.0514V11.2196L20.8405 11.2549V11.2902H20.7685V11.3255L20.5576 11.36V11.3953H20.4856V11.4305H20.3971V11.4651H20.292C20.1168 11.5639 19.9275 11.6351 19.7306 11.676V14.1657C19.6586 14.3759 19.5902 14.5861 19.5197 14.797H19.4844L19.4498 14.902L19.3779 14.9373V15.0093L19.2375 15.1144V15.1864L18.6055 15.7118L18.4616 15.7471C17.4382 16.2668 16.312 16.5522 15.1646 16.5825C14.0173 16.6129 12.8775 16.3875 11.8281 15.9227H11.7597V15.8874H11.6877V15.8522H11.6158V15.8169H11.5438L11.5085 15.7449L11.3682 15.7096C11.3566 15.6866 11.3451 15.6628 11.3329 15.6377H11.2609C11.2494 15.6139 11.2372 15.5909 11.2256 15.5657L11.1205 15.5311L11.0155 15.3908H10.9435L10.8031 15.2151L10.7311 15.1806V15.1086L10.5872 15.0035V14.9316L10.5152 14.8963C10.5037 14.861 10.4915 14.8243 10.4799 14.7912H10.4641C10.3921 14.5803 10.3201 14.3701 10.2539 14.16V11.6911C10.1564 11.6864 10.0609 11.6619 9.97321 11.6191V11.5846L9.76232 11.5493V11.514H9.69034V11.4788L9.47945 11.4442V11.4104H9.40747V11.3751L9.19657 11.3406V11.3053H9.12459V11.27L8.91441 11.2348V11.2002H8.84244V11.1649L8.63226 11.1297V11.0951H8.56028V11.0599L8.2443 10.9879V10.9569H8.17232V10.9217L7.96143 10.8864V10.849H7.88945V10.813L7.67855 10.7777V10.741H7.60658V10.7064L7.39568 10.6712V10.6359H7.3237V10.6006L7.1128 10.5661V10.5308H7.04083V10.4955L6.83065 10.461V10.4257H6.75867V10.3905L6.5485 10.3552V10.3235L6.16197 10.1796C6.15152 10.127 6.12659 10.0784 6.09 10.0392H6.07344C6.0182 9.91844 5.99349 9.78596 6.00146 9.6534H6.03601C6.04825 9.5951 6.05977 9.5368 6.07128 9.47777H6.10655C6.14345 9.4391 6.16843 9.39062 6.17853 9.33814L6.38943 9.26615V9.23089H6.49451V9.19633H6.56649V9.16107L6.74212 9.1258V9.09125L6.95229 9.05598V9.02072H7.02427V8.98544H7.12936V8.95593H7.20134V8.92066L7.41223 8.8854V8.85084H7.48421V8.81558L7.69439 8.78031V8.74503H7.76637V8.71049L7.94199 8.67521V8.63995L8.15217 8.6054V8.57013H8.22414V8.53486L8.43432 8.49959V8.46504H8.5063V8.42978H8.61139V8.3945H8.68337V8.35996H8.78846V8.32468H8.88059V8.28941H8.95256V8.25415H9.05765V8.22176H9.12963V8.18648L9.34053 8.15122V8.11379H9.4125V8.07779L9.62268 8.04253V8.00582L9.79831 7.97127V7.936H9.87029V7.90074L10.0812 7.86546V7.83092H10.1532V7.79564L10.3633 7.76038V7.72582H10.4353V7.69056H10.5361V7.65529H10.6081V7.62002L10.819 7.58547V7.55021H10.8909V7.51493H10.996V7.48039H11.068V7.44511H11.1738V7.40984H11.2789V7.37458H11.3509V7.34002L11.5618 7.30476V7.26948H11.6337V7.23494H11.7388V7.19966H11.8108V7.16439L12.0217 7.12913V7.09458H12.0937V7.05931L12.3046 7.02404V6.98877H12.3766V6.95422H12.4816V6.91895H12.5536V6.88368L12.7645 6.84913V6.81386L12.9402 6.7786V6.74621H13.0121V6.71022H13.1179V6.67495H13.1993V6.63823H13.2712V6.60369L13.4821 6.56841V6.53315H13.5541V6.49788H13.6592V6.46333H13.7312V6.42806L13.9421 6.3928V6.35824H14.0141V6.32298L14.225 6.2877V6.25243L14.4006 6.21788V6.18261H14.4726V6.14735L14.6835 6.1128V6.07753H14.7554V6.04226H14.8612V6.00699C15.06 5.98004 15.2614 6.03169 15.4227 6.15095H15.5278V6.18622H15.5997V6.22148H15.7048V6.25604H15.7768V6.2913L15.987 6.32657V6.36185H16.059V6.39639L16.2691 6.43167V6.46693H16.3411V6.50148H16.4462V6.53675H16.5182V6.57202L16.7284 6.60728V6.63823H16.8003V6.67351L16.9904 6.71022V6.74477L17.166 6.78003V6.8153H17.238V6.85417L17.4481 6.88872V6.92399L17.6238 6.95925V6.99381H17.6957V7.02907L17.9059 7.06435V7.09962H17.9779V7.13417L18.1881 7.16944V7.2047H18.26V7.23997H18.3651V7.27452H18.4371V7.30979L18.6473 7.34506V7.37961H18.7193V7.41488L18.9294 7.45015V7.48542L19.1051 7.51997V7.55524H19.1771V7.59051L19.3872 7.62505V7.66033H19.4592V7.6956H19.5643V7.73086H19.6363V7.76542L19.8472 7.80068V7.83595H19.9191V7.8705L20.1293 7.90577V7.94105H20.2013V7.97631H20.3064V8.00582H20.3784V8.04109L20.5893 8.07636V8.11091H20.6612V8.14978L20.8714 8.18504V8.22176L21.047 8.2563V8.29158H21.119V8.32684L21.3299 8.36211V8.39666L21.5055 8.43193V8.4672H21.5775V8.50175L21.7884 8.53702V8.57229H21.8366V8.60756L22.0468 8.64211V8.67738H22.1188V8.71264H22.2239V8.7472H22.2959V8.78246H22.4017V8.81773H22.5068V8.85301H22.5787V8.88755L22.7889 8.92283V8.95809L22.9645 8.99264V9.02791H23.0365V9.06318L23.2474 9.09844V9.133H23.3194V9.16826H23.4245V9.20354L23.7995 9.34174ZM14.9548 7.09745V7.13201L14.7792 7.16727V7.20255H14.6741V7.23782H14.5669V7.27237H14.4949V7.30763L14.3193 7.3429V7.37745L14.1091 7.41272V7.44799H14.0371V7.48326L13.8269 7.51781V7.55308H13.7549V7.58835H13.6499V7.6229H13.5779V7.65817L13.3677 7.69343C12.188 8.21096 10.896 8.61619 9.71697 9.133L9.5068 9.16826V9.20354H9.43482V9.23808L9.22464 9.27336V9.30862H9.15266V9.34389H9.04758V9.3734H8.9756V9.40867L8.76542 9.44395V9.47849H8.69344V9.51736L8.48327 9.55263V9.58934H8.41129V9.62389H8.3062V9.65916H8.23422V9.69442L8.02405 9.7297V9.76424H8.05932V9.79952L8.26949 9.83479V9.86934H8.34147V9.90461L8.55165 9.93987V9.97514H8.62362V10.0097L8.8338 10.045V10.0802H8.90578V10.1148L9.11596 10.1501V10.1853H9.18793V10.2206L9.39883 10.2551V10.2904H9.47081V10.3257L9.6817 10.3602V10.3955H9.75368V10.4308L9.96457 10.466V10.5006H10.0366V10.5359L10.2475 10.5711V10.6057H10.3201V10.6409H10.426V10.6762L10.6361 10.7115V10.741H10.7081V10.7763L10.9183 10.8115C11.5661 11.0994 12.3039 11.3334 12.9545 11.6177H13.0596V11.653H13.1647V11.6882H13.2367V11.7228H13.3432V11.758L13.5541 11.7933V11.8286H13.6261V11.8631L13.837 11.8984V11.9337H13.909V11.9682L14.1199 12.0035V12.0388H14.1918V12.074L14.4027 12.1086V12.1438H14.4747V12.1806L14.6856 12.2158V12.2525H14.7576V12.2878L14.9685 12.3231V12.3576L15.4248 12.218V12.1806H15.5299V12.1453H15.6019V12.1086H15.707V12.074H15.8121V12.0388H15.8841V12.0035L16.0942 11.9682V11.9337H16.1662V11.8984L16.3771 11.8631V11.8286H16.4491V11.7933L16.7651 11.7213V11.6911H16.837V11.6558L17.0479 11.6206V11.586H17.1199V11.5507L17.3301 11.5155V11.4802H17.4021V11.4457L17.6122 11.4104V11.3751H17.6842V11.3406L17.8944 11.3053V11.27H17.9664V11.2348H18.0715V11.2002H18.1766V11.1649H18.2485V11.1297L18.4594 11.0951V11.0599H18.5314V11.0246L18.7423 10.9893V10.9569H18.8143V10.9217L19.0252 10.8864V10.849H19.0972V10.813L19.3081 10.7777V10.741H19.38V10.7064L19.696 10.6345V10.5992H19.768V10.5646H19.8731V10.5294H19.9782V10.4941H20.0501V10.4596L20.2603 10.4243V10.389H20.3323V10.3537L20.5432 10.3192V10.2839H20.6152V10.2487L20.8261 10.2141V10.1788H20.898V10.1436L21.1089 10.1083V10.0738H21.1809V10.0428L21.3918 10.0075V9.97299H21.4638V9.93771H21.5696V9.90244L21.9907 9.76209V9.72754C21.8933 9.72228 21.7979 9.69782 21.71 9.65556V9.62029L21.4832 9.58934V9.55407L21.2723 9.5188V9.48138H21.2004V9.44538L20.9895 9.41012V9.3734H20.9175V9.33885L20.7419 9.30358V9.26832L20.531 9.23305V9.1985H20.459V9.16323L20.2481 9.12795V9.09341H20.1761V9.05814H20.0703V9.02287H19.9983V8.9876H19.8932V8.95593H19.7874V8.92066H19.7154V8.8854H19.6096V8.85084H19.5377V8.81558L19.3268 8.78031V8.74503H19.2548V8.71049L19.0439 8.67521V8.63995L18.8683 8.6054V8.57013H18.7963V8.53486L18.5854 8.49959V8.46504H18.5134V8.42978L18.3025 8.3945V8.35996H18.2305V8.32468H18.1247V8.28941H18.0528V8.25415L17.8419 8.2196V8.18433H17.7699V8.14978H17.6648V8.11379H17.5928V8.07779H17.518V8.04253H17.4121V8.00582H17.3402V7.97127L17.1293 7.936V7.90074L16.9544 7.86546V7.83092H16.8824V7.79564L16.6715 7.76038V7.72582H16.5995V7.69056L16.3886 7.65529V7.62002H16.3166V7.58835H16.2108V7.55308H16.1389V7.51781H16.0338V7.48326H15.9344V7.44799H15.8625V7.41272L15.6516 7.37745V7.3429H15.5796V7.30763L14.9548 7.09745ZM11.3048 12.1114V13.5848C11.2755 13.821 11.3001 14.0607 11.3768 14.2859L11.7597 14.7063H11.8317L11.9037 14.8121L12.044 14.8466C12.8779 15.2626 13.7896 15.4993 14.7205 15.5416C15.6513 15.5839 16.5807 15.4307 17.4489 15.0921H17.5539V15.0597L17.7648 14.9877V14.9531L17.9052 14.9179L17.9405 14.8459L18.0808 14.8114L18.1528 14.7055H18.2248L18.4004 14.4954L18.5408 14.3903V14.3183L18.6127 14.283C18.6898 14.0579 18.7145 13.8181 18.6847 13.582V12.1086L15.1045 13.4416L14.7533 13.4063V13.3711H14.6813V13.3358L14.4704 13.3012V13.266H14.3984V13.2307L14.0824 13.1587V13.1235H14.0105V13.0882L13.8003 13.0536V13.0184H13.7283V12.9831L13.5181 12.9486V12.9133H13.4462V12.878L13.236 12.8428V12.8082H13.164V12.778L12.9538 12.7427V12.7081H12.8818V12.6729L12.671 12.6376V12.6023H12.599V12.5678L12.3881 12.5325V12.4972H12.3161V12.4627H12.211V12.4274H12.1052V12.3922H12.0332V12.3569L11.8317 12.3245C11.6643 12.2339 11.4876 12.1615 11.3048 12.1086V12.1114ZM22.2556 15.5484C22.2164 15.585 22.1678 15.6099 22.1152 15.6204V15.6556H22.0432V15.6909H22.0094L21.9748 15.796H21.9396C21.8782 15.9271 21.8533 16.0723 21.8676 16.2164C21.9042 16.2555 21.9291 16.3041 21.9396 16.3567H21.9748V16.4287H22.0094V16.4632L22.1152 16.4985V16.5338C22.2464 16.5955 22.392 16.6204 22.5363 16.6058C22.5753 16.5689 22.624 16.5439 22.6766 16.5338V16.4985H22.7486V16.4632C22.8443 16.3805 22.7587 16.4633 22.8206 16.3582H22.8559C22.9176 16.2272 22.9424 16.0819 22.9278 15.9378C22.8559 15.8745 22.8508 15.755 22.7839 15.6924C22.7169 15.6297 22.6018 15.6247 22.5384 15.552H22.2577L22.2556 15.5484ZM7.44103 18.7039H21.5854C22.0869 18.6337 22.5979 18.7069 23.0596 18.9148C23.0833 18.9494 23.1063 18.9868 23.1315 19.0199H23.2035L23.2755 19.125H23.3108V19.197L23.4547 19.3028L23.8052 20.0391C23.8403 20.2493 23.8753 20.4597 23.9103 20.6704C23.9891 20.9913 24.0134 21.3232 23.9823 21.6521H23.947V22.0027H23.9118V22.2129H23.8772V22.3885H23.8419C23.8182 22.5051 23.7952 22.6224 23.77 22.739H23.7297V22.811H23.6944V22.9168H23.6591V22.9888H23.6239V23.0608H23.5893V23.1327H23.554V23.2047H23.5188V23.2652L23.4468 23.2997V23.3717L23.341 23.4437V23.5157L23.269 23.5502L23.1632 23.6906H23.0912C23.0675 23.7258 23.0444 23.7625 23.0192 23.7957L22.8091 23.8676V23.9029C22.3601 24.0004 21.8982 24.0247 21.4415 23.9749H8.28605C7.93521 24.015 7.58038 24.0031 7.23301 23.9396V23.9051H7.16103V23.8698L6.95014 23.7978L6.87816 23.6927H6.80618C6.79466 23.6697 6.78315 23.6459 6.77091 23.6208L6.63055 23.5157V23.4437L6.52546 23.3717V23.2997L6.45348 23.2652L6.41894 23.1212H6.38367C6.35991 23.0492 6.33688 22.9809 6.31169 22.911H6.28938V22.8052H6.25411V22.7333H6.2174C6.19437 22.6167 6.17061 22.4993 6.14542 22.3827H6.11015C6.09863 22.2539 6.0864 22.125 6.07488 21.9969C5.97589 21.5707 5.97589 21.1275 6.07488 20.7013V20.458H6.11015V20.3141H6.14542V20.1773H6.17997V20.0715H6.2174V19.9311H6.25267C6.26418 19.8851 6.2757 19.8383 6.28794 19.7915H6.32249V19.6857H6.35776C6.36927 19.6396 6.38151 19.5928 6.39302 19.5461H6.4283L6.46284 19.4057L6.81409 18.9846H6.88607L6.95805 18.8795H7.03003V18.8443L7.17398 18.8097V18.7745H7.27908V18.7392H7.44103V18.7039ZM7.54612 19.7562L7.40216 19.9311H7.36689V20.0031H7.33234C7.30858 20.0751 7.28555 20.1435 7.26036 20.2133H7.22509V20.3141C7.01844 20.8888 6.99332 21.5132 7.15311 22.1027V22.2431H7.18766C7.1999 22.3151 7.21141 22.3834 7.22293 22.4533H7.2582C7.28196 22.5252 7.30499 22.5936 7.33018 22.6634H7.36473V22.7354H7.4L7.54395 22.911C7.61593 22.8909 7.57418 22.911 7.61593 22.8758C7.72135 22.8058 7.8061 22.7089 7.86138 22.5951V22.5231C8.16112 21.8215 8.18681 21.033 7.93335 20.3134V20.2083H7.89809V20.1363H7.86282V20.0643H7.82971V19.9923H7.79444C7.77461 19.9367 7.74212 19.8864 7.69952 19.8454C7.65693 19.8044 7.6054 19.7739 7.54899 19.7562H7.54612ZM8.87987 19.7562C8.90039 19.8546 8.93582 19.9493 8.98495 20.037V20.1809H9.02454V20.3141H9.05981V20.458H9.09652V20.6689H9.13107V20.9489H9.16634C9.1972 21.2063 9.18528 21.467 9.13107 21.7205L9.09652 22.2114H9.06125V22.3518H9.02454C9.01302 22.4453 9.00151 22.5389 8.98927 22.6325C8.93826 22.7193 8.9027 22.8143 8.88418 22.9132H14.0083C14.1019 22.7606 14.1962 22.6087 14.2897 22.4569V22.3511C14.4957 21.7761 14.5208 21.152 14.3617 20.5624V20.4228H14.3265L14.2919 20.2119H14.2566C14.2329 20.1399 14.2098 20.0679 14.1847 20.0017H14.1494V19.9297H14.1148L13.9709 19.7548H8.88059L8.87987 19.7562ZM15.2327 19.7562C15.2532 19.8546 15.2886 19.9493 15.3377 20.037V20.1809H15.373V20.3141H15.4083V20.458H15.4435V20.6689H15.4781V20.9489H15.5134C15.5442 21.2063 15.5323 21.467 15.4781 21.7205L15.4435 22.2114H15.4083V22.3518H15.373C15.3615 22.4453 15.35 22.5389 15.3377 22.6325C15.2867 22.7193 15.2512 22.8143 15.2327 22.9132H16.1101L16.3908 22.4569C16.403 22.3849 16.4145 22.3165 16.4261 22.2467H16.4613C16.4728 22.1416 16.4844 22.0365 16.4966 21.9307C16.6199 21.3942 16.5831 20.8334 16.3908 20.3177V20.2126H16.3591C16.3354 20.1406 16.3123 20.0686 16.2871 20.0024H16.2519V19.9304L16.1115 19.8253C16.1 19.8023 16.0885 19.7786 16.0762 19.7534H15.2341L15.2327 19.7562ZM17.3387 19.7562C17.3589 19.8547 17.3944 19.9494 17.4438 20.037V20.1809H17.4791V20.3141H17.518V20.458H17.5525V20.6689H17.5899V20.9489H17.6252C17.6561 21.2063 17.6441 21.467 17.5899 21.7205C17.5784 21.8839 17.5669 22.048 17.5547 22.2114H17.518V22.3518H17.482C17.4704 22.4453 17.4582 22.5389 17.4467 22.6325C17.3957 22.7193 17.3601 22.8143 17.3416 22.9132H22.4657L22.7465 22.4569V22.3511C22.9527 21.7762 22.9778 21.152 22.8184 20.5624V20.4228H22.7832C22.7716 20.3508 22.7601 20.2824 22.7479 20.2119H22.7133C22.6896 20.1399 22.6665 20.0679 22.6414 20.0017H22.6061V19.9297H22.5715L22.4276 19.7548H17.3387V19.7562Z" fill="white" fill-opacity="0.6"/>
</svg>
