<svg width="30" height="30" viewBox="0 0 30 30" fill="none" xmlns="http://www.w3.org/2000/svg">
<circle cx="15" cy="15" r="15" fill="#090B13"/>
<path fill-rule="evenodd" clip-rule="evenodd" d="M6.45718 23.5409C6.42809 23.4594 6.37849 23.3867 6.31318 23.3299H6.27862C6.26638 23.2831 6.25487 23.2363 6.24335 23.1859H6.20807V23.1139L6.13607 23.0787C6.12455 23.0067 6.11304 22.9347 6.1008 22.8677H6.072C6.05976 22.7504 6.04823 22.6337 6.03671 22.5164H6V22.2702H6.03529V22.0239C6.19117 21.608 6.45869 21.243 6.80849 20.9692L6.94889 20.7935L7.6523 20.1262L12.26 15.4861C12.0634 15.3324 11.8864 15.1552 11.733 14.9583L11.4867 14.7474L10.643 13.8691L9.41256 12.6739L8.77972 12.0058L7.97123 11.2326V11.1606L7.79555 11.0202C7.78403 10.9849 7.77252 10.9482 7.76028 10.9151L7.68829 10.8798V10.8078L7.61629 10.7726C7.60477 10.7373 7.59326 10.7006 7.58102 10.6674H7.54574L7.51118 10.5235L7.43918 10.4889V10.3917H7.40391V10.3197H7.3679C7.35638 10.2729 7.34488 10.2261 7.33264 10.1793H7.29808V10.0742H7.26279V10.0022H7.22751C7.21599 9.93021 7.20376 9.86182 7.19224 9.79126H7.15696V9.65087C6.91877 8.67153 6.97998 7.64324 7.33264 6.69907C7.34488 6.62707 7.35638 6.55868 7.3679 6.48885H7.40319V6.41685H7.4399C7.45142 6.34485 7.46295 6.27286 7.47519 6.2059H7.5119V6.13391H7.54646C7.54782 6.08689 7.56067 6.04091 7.5839 6H8.252C8.39499 6.18403 8.56043 6.34946 8.74446 6.49245L8.95541 6.73794L9.83375 7.58174L12.0836 9.86686L13.2787 11.0267C13.6305 11.3895 13.9821 11.7529 14.3334 12.1167L14.5091 12.2571C14.6523 12.4529 14.8314 12.6198 15.0368 12.7488L15.2478 12.5033L15.3198 12.468V12.396L15.4637 12.2909V12.2189L15.5357 12.1837C15.548 12.1369 15.5595 12.0901 15.571 12.0433H15.6063C15.6178 11.9965 15.6301 11.9497 15.6416 11.9029H15.6769V11.797H15.7121V11.6531H15.7467V11.4068H15.782V11.1253C15.8525 10.9026 15.9228 10.6802 15.9929 10.4579L16.0649 10.4227V10.3507H16.1002L16.1347 10.2103L16.2067 10.175V10.103L16.2787 10.0677V9.99573L16.4191 9.89062V9.81862L17.0872 9.18578C17.2394 9.02163 17.3918 8.85773 17.5444 8.69406L18.7748 7.49821L19.0556 7.18216L19.8288 6.44421C19.9477 6.27115 20.1039 6.12698 20.286 6.02232L20.8137 6.5846C20.8947 6.63271 20.9567 6.70718 20.9894 6.79554C20.9092 6.85523 20.8381 6.92629 20.7784 7.00649L20.3213 7.46366C20.2277 7.54574 20.1338 7.62756 20.0398 7.70916L18.9015 8.8798L18.4091 9.37153C18.301 9.43876 18.2155 9.53681 18.1636 9.65303C18.2955 9.75435 18.4136 9.87245 18.5149 10.0044C18.6468 10.1057 18.7649 10.2238 18.8662 10.3557C18.8743 10.3526 18.8816 10.3479 18.8876 10.3418C18.8937 10.3357 18.8985 10.3285 18.9015 10.3204C19.0075 10.2399 19.1022 10.1454 19.183 10.0396L19.8504 9.37153L20.1672 9.09075L21.119 8.10874L21.5409 7.68756C21.6076 7.63751 21.6667 7.5781 21.7165 7.51118C21.7245 7.51433 21.7318 7.51908 21.7378 7.52515C21.7439 7.53122 21.7486 7.53847 21.7518 7.54645L22.4897 8.24985V8.28512H22.4552C22.3742 8.39074 22.2795 8.48515 22.1737 8.5659L21.5056 9.23402L21.2248 9.55008L20.2399 10.4997L19.818 10.9216C19.7682 10.9883 19.7091 11.0475 19.6423 11.0973C19.6455 11.1051 19.6503 11.1123 19.6564 11.1182C19.6625 11.1241 19.6697 11.1288 19.6776 11.1318C19.8208 11.3157 19.9862 11.4811 20.1701 11.6243C20.2269 11.7196 20.3134 11.7936 20.4163 11.8352C20.4763 11.7555 20.547 11.6845 20.6265 11.6243C20.7792 11.4716 20.9315 11.3192 21.0837 11.1671L21.3299 10.8863L22.4897 9.76102L22.9822 9.2693C23.0488 9.1605 23.147 9.07461 23.2637 9.02308C23.3648 9.15516 23.483 9.27329 23.615 9.37441C23.7164 9.50632 23.8344 9.62443 23.9664 9.72575V9.76102H23.9268C23.7941 9.93171 23.6408 10.0853 23.4703 10.2182L23.3645 10.3586L22.5207 11.1671L22.2399 11.4839L20.728 12.9598C20.4922 13.228 20.2335 13.4751 19.9548 13.6984L19.8828 13.8035L19.7424 13.8388C19.7309 13.8626 19.7187 13.8856 19.7071 13.9108H19.6351V13.9454L19.4242 14.0174V14.0526H19.3191V14.0879H19.2133V14.1232H19.1081V14.1578H19.0023V14.193L18.1593 14.2989V14.3342H18.0873V14.3687H17.9872V14.404H17.9152V14.4393H17.8432C17.8317 14.463 17.8194 14.4861 17.8079 14.5113H17.7359C17.7122 14.5465 17.6884 14.5833 17.6639 14.6164H17.5919C17.5804 14.6401 17.5689 14.6632 17.5566 14.6884L17.2406 14.9691V15.0411L23.5682 21.3335V21.4055L23.7086 21.5113V21.5833L23.7806 21.6179V21.6899H23.8159C23.8274 21.7367 23.8389 21.7835 23.8512 21.8303H23.8864V21.9361H23.9268V22.0765H23.9621V22.3227H23.9988V22.5337H23.9635V22.7799H23.9268V22.9239H23.8922V23.029H23.8569C23.8447 23.0758 23.8332 23.1233 23.8217 23.173H23.7864C23.7749 23.2198 23.7626 23.2666 23.7511 23.3134L23.6107 23.4185V23.4905L23.5387 23.5258L23.4336 23.6661H23.3616C23.3386 23.7014 23.3148 23.7381 23.2896 23.772H23.2176V23.8073L23.0067 23.8793V23.9145H22.9008V23.9268H22.8036V23.9621H22.5927V23.9988L22.0304 23.9642V23.9268H21.8864V23.8915H21.7813V23.8548L21.6409 23.8195V23.7849H21.5689C21.4395 23.6805 21.3218 23.5625 21.2176 23.4329L21.1118 23.3609L20.4789 22.6928L16.507 18.7561L15.5573 17.7712L15.4169 17.6661C15.2982 17.4928 15.142 17.3486 14.9598 17.2442C14.8995 17.3239 14.8285 17.3949 14.7488 17.4551L14.2917 17.9123L13.9756 18.2636L12.8856 19.3184L10.9525 21.2867L9.82726 22.3767L9.12458 23.1147L8.91364 23.2903L8.66741 23.5718H8.59543L8.49032 23.7122L8.27935 23.7842L8.24409 23.8562H8.13898V23.8915L7.92803 23.9268V23.9621H7.61125V23.9988C7.5623 24.0067 7.62493 23.9743 7.57597 23.9642C7.38672 23.9577 7.19847 23.9336 7.01368 23.8922V23.8548L6.80274 23.7828V23.7475L6.66236 23.7122V23.6769C6.60596 23.6157 6.53556 23.569 6.45718 23.5409ZM8.1793 7.47662C8.17259 7.59661 8.14833 7.71499 8.1073 7.82796V8.14401H8.07201C8.08353 8.49583 8.0953 8.8474 8.1073 9.19874H8.14258L8.17712 9.5148C8.56105 10.3152 9.12839 11.0138 9.83302 11.5537C11.3795 13.1126 12.9264 14.6711 14.4738 16.2291C14.4818 16.226 14.4889 16.2212 14.4949 16.2152C14.5009 16.2091 14.5055 16.2018 14.5084 16.1938C14.6014 16.1237 14.6842 16.0411 14.7546 15.9483L15.3874 15.3154C15.523 15.229 15.6325 15.1073 15.7042 14.9634L8.1793 7.47662ZM17.3543 10.3939L17.1787 10.6048L17.1067 10.6401V10.7121L17.0347 10.7466C17.0232 10.7934 17.0109 10.8409 16.9994 10.8906H16.9641L16.9296 11.031H16.8943C16.8337 11.2744 16.7857 11.5207 16.7503 11.769V11.9446C16.6807 12.1438 16.6104 12.343 16.5394 12.5422L16.4674 12.5775C16.4558 12.6243 16.4436 12.6718 16.4321 12.7215L16.3601 12.756C16.3486 12.8035 16.3371 12.8503 16.3248 12.9L16.1844 13.0051V13.0771L15.9735 13.2528C15.9033 13.346 15.8204 13.4289 15.7272 13.499C15.7339 13.515 15.7466 13.5276 15.7625 13.5343C15.9059 13.7177 16.0713 13.8829 16.255 14.026C16.312 14.1211 16.3984 14.1952 16.5012 14.237L16.7121 13.9907H16.7841L16.9951 13.7452H17.0671L17.1391 13.6394L17.2795 13.6041C17.291 13.5811 17.3025 13.5573 17.3147 13.5321L17.4551 13.4968V13.4616L17.5955 13.4263V13.391L17.7712 13.3557V13.3212H17.8792V13.2859H18.0232V13.2506L18.6913 13.1786L19.1132 13.0346C19.1247 13.0109 19.1362 12.9878 19.1485 12.9626L19.2889 12.9281L19.3609 12.8223C19.418 12.803 19.4699 12.7707 19.5125 12.728C19.5551 12.6853 19.5872 12.6333 19.6063 12.576L17.9548 10.959C17.7892 10.7364 17.586 10.5444 17.3543 10.3917V10.3939ZM22.8036 22.8022C22.8152 22.7676 22.8267 22.7302 22.8389 22.6971H22.8735V22.6251H22.9088C22.921 22.52 22.9325 22.4142 22.944 22.309H22.9088C22.8972 22.25 22.8857 22.1917 22.8735 22.1334L18.2658 17.5631L17.1758 16.4386L17.0001 16.2982C16.846 16.0898 16.6555 15.911 16.4378 15.7704C16.3367 15.9028 16.2186 16.0211 16.0865 16.1225C15.9848 16.2543 15.8664 16.3724 15.7344 16.4738C15.7411 16.4898 15.7538 16.5025 15.7697 16.5091C15.9127 16.6929 16.0782 16.8581 16.2622 17.0008L17.0001 17.7741L17.3515 18.0909C18.1372 18.8871 18.9224 19.6839 19.7071 20.4811L20.7972 21.5358L21.5704 22.3443L21.746 22.4847C21.8814 22.6782 22.0624 22.8352 22.273 22.9419C22.4613 22.9661 22.6517 22.916 22.8036 22.8022ZM12.9605 16.2643L8.56878 20.6935L7.65588 21.5725L7.55006 21.7129C7.40861 21.7976 7.28989 21.9155 7.20422 22.0564C7.11854 22.1972 7.06847 22.3569 7.05833 22.5214H7.09361L7.12815 22.6971L7.27215 22.8022V22.8375C7.35043 22.886 7.43939 22.9145 7.53126 22.9207C7.62313 22.9268 7.71511 22.9104 7.79915 22.8728C7.98356 22.7874 8.14151 22.6538 8.25633 22.4862L9.13539 21.6071L10.049 20.7287L12.3694 18.3731L12.6156 18.1621L13.3536 17.3889C13.514 17.2808 13.6465 17.1362 13.7402 16.967L13.1779 16.44C13.1284 16.3576 13.0514 16.2954 12.9605 16.2643Z" fill="white" fill-opacity="0.6"/>
</svg>
