<svg width="120" height="120" viewBox="0 0 120 120" fill="none" xmlns="http://www.w3.org/2000/svg">
<circle cx="60" cy="60" r="60" fill="#D4AA90"/>
<path d="M42.0483 64V55.2727H45.1591C45.838 55.2727 46.4005 55.3963 46.8466 55.6435C47.2926 55.8906 47.6264 56.2287 47.848 56.6577C48.0696 57.0838 48.1804 57.5639 48.1804 58.098C48.1804 58.6349 48.0681 59.1179 47.8437 59.5469C47.6221 59.973 47.2869 60.3111 46.838 60.5611C46.392 60.8082 45.8309 60.9318 45.1548 60.9318H43.0156V59.8153H45.0355C45.4645 59.8153 45.8125 59.7415 46.0795 59.5938C46.3466 59.4432 46.5426 59.2386 46.6676 58.9801C46.7926 58.7216 46.8551 58.4276 46.8551 58.098C46.8551 57.7685 46.7926 57.4759 46.6676 57.2202C46.5426 56.9645 46.3451 56.7642 46.0752 56.6193C45.8082 56.4744 45.4559 56.402 45.0184 56.402H43.365V64H42.0483ZM52.124 64V55.2727H53.4408V62.8665H57.3953V64H52.124ZM62.48 64H61.0823L64.2229 55.2727H65.7442L68.8848 64H67.4871L65.0198 56.858H64.9516L62.48 64ZM62.7144 60.5824H67.2485V61.6903H62.7144V60.5824ZM70.9812 55.2727H72.477L74.7568 59.2401H74.8505L77.1304 55.2727H78.6261L75.4599 60.5739V64H74.1474V60.5739L70.9812 55.2727Z" fill="#090B13"/>
</svg>
