<svg width="30" height="30" viewBox="0 0 30 30" fill="none" xmlns="http://www.w3.org/2000/svg">
<circle cx="15" cy="15" r="15" fill="#090B13"/>
<path fill-rule="evenodd" clip-rule="evenodd" d="M19.8374 10.2227L20.1586 10.3278C20.1701 10.3516 20.1824 10.3746 20.1939 10.3998H20.2659V10.4351L20.4099 10.4697L20.446 10.5417H20.518C20.5302 10.5648 20.5417 10.5885 20.554 10.6137H20.626L20.6613 10.6857H20.7333L20.7693 10.7578H20.8413L20.9479 10.8982H21.0199L21.1985 11.1092H21.2705L21.4484 11.3202L21.5204 11.3548V11.4268L21.7365 11.6025C22.0447 12.0187 22.3078 12.4666 22.5215 12.9384V13.0435H22.5503V13.1487H22.5863V13.2545H22.6223V13.3597H22.6583C22.6698 13.4533 22.6821 13.5476 22.6936 13.6413H22.7296V13.817C22.8643 14.3222 22.8764 14.8523 22.7649 15.3632V15.6095H22.7296V15.7852H22.6936V15.9256H22.6583V16.066H22.6223V16.1719H22.587V16.277H22.5503V16.3822C22.291 17.0849 21.8623 17.7127 21.3022 18.2099L21.0142 18.5268H20.9422L20.8701 18.632H20.7981L20.7261 18.7371H20.6541C20.6426 18.7609 20.6303 18.7839 20.6188 18.8091L20.5115 18.8444V18.8797L20.3675 18.9143L20.3315 18.9863L20.1154 19.0583V19.0929H20.0434V19.1281L19.8273 19.2002V19.2354H19.7208V19.27H19.6488V19.3053H19.5414V19.3406H19.4349V19.3759H19.3384V19.4112H19.2318V19.4457H19.0877C18.4528 19.6433 17.7786 19.6797 17.126 19.5516L16.7343 19.5163V19.463H16.5902V19.4277H16.4829V19.3932H16.3389C16.0379 19.2866 15.7318 19.1339 15.4474 19.0064V24H14.3779V19.0093H14.3426C14.2484 19.0813 14.1382 19.1294 14.0214 19.1497V19.185L13.8774 19.2203V19.2549H13.7701V19.2902H13.6981V19.3255H13.5915V19.3607H13.4907V19.396L13.2415 19.4306V19.463H13.0975V19.4983H12.9189V19.535L12.3838 19.5703V19.607C12.1222 19.6381 11.8574 19.6264 11.5996 19.5725L11.0278 19.535V19.4997H10.8837V19.463H10.7397V19.4277H10.5957V19.3932H10.4884V19.3579H10.3818V19.3226L10.1657 19.2873V19.252H10.0937V19.2174H9.9864V19.1821L9.77036 19.1101V19.0748H9.69834V19.0403L9.4823 18.9683L9.447 18.8962L9.30296 18.8617V18.8264L9.19567 18.7911L9.15967 18.7191H9.08765L9.01563 18.6139H8.94361L8.87159 18.5088H8.79959L8.51151 18.1919H8.43951C8.42799 18.1566 8.41574 18.1199 8.40422 18.0868L8.08302 17.8052V17.7332L7.97645 17.6612L7.94043 17.556L7.86843 17.5208V17.4487L7.79641 17.4142L7.76112 17.2701L7.6891 17.2356L7.65382 17.1297H7.64301L7.57099 16.9187H7.53571V16.8467H7.49899L7.42697 16.6357H7.39167C7.37943 16.5637 7.36792 16.4916 7.35568 16.4247H7.32038V16.3527H7.28438L7.21236 16.0365H7.17706V15.8961H7.14107V15.7758H7.10577V15.6001H7.06977V15.3538H7.03448V15.0024C6.96469 14.5441 7.00116 14.076 7.14107 13.6341V13.49H7.17706V13.346H7.21236V13.2409H7.24836V13.135H7.28366V13.0299H7.31965V12.9247C7.53277 12.4528 7.79569 12.0049 8.10392 11.5888L8.31996 11.4131V11.3411L8.53602 11.1654L8.57202 11.0934H8.64404L8.8219 10.8823H8.89392L9.00124 10.7419H9.07323C9.08476 10.7181 9.09701 10.6951 9.10853 10.6699H9.18055L9.21655 10.5979H9.28857C9.30081 10.5741 9.31233 10.5503 9.32457 10.5259H9.39659C9.40811 10.5021 9.42036 10.4791 9.43188 10.4539L9.57592 10.4193V10.384H9.64792L9.68394 10.312L10.0044 10.2068C10.0293 9.9155 10.1023 9.6303 10.2205 9.36281C10.2327 9.2908 10.2442 9.22238 10.2565 9.15252H10.2918V9.08051H10.3278V8.97536H10.363L10.4351 8.76436H10.4711V8.69235H10.5064V8.58721L10.5784 8.55191C10.5906 8.5051 10.6021 8.4583 10.6144 8.41149L10.6864 8.37619C10.6979 8.32938 10.7102 8.28258 10.7217 8.23577H10.7577C10.7692 8.20048 10.7814 8.16375 10.793 8.1299L10.865 8.09462V8.0226L10.937 7.98731C10.9493 7.95203 10.9615 7.9153 10.973 7.88217L11.1516 7.73814V7.66612L11.5117 7.34998L11.6557 7.17426H11.7277L11.9056 6.96325H11.9776L12.0136 6.89123H12.0857L12.121 6.81922H12.193L12.229 6.7472H12.301C12.3125 6.72344 12.3247 6.70039 12.3363 6.67518L12.5523 6.60317C12.5639 6.57941 12.5761 6.55636 12.5876 6.53115L12.9088 6.42601V6.42818H12.9808V6.39288L13.1248 6.3576V6.32231H13.2314V6.28414H13.3387V6.24885H13.4453V6.21357H13.5526C14.2181 5.98887 14.9304 5.94048 15.6202 6.07313L16.0523 6.10843V6.14299L16.3403 6.17828V6.21357H16.4469V6.24885H16.5542V6.28414H16.6608V6.31871H16.7681V6.35616L16.9121 6.39144V6.42818H16.9842V6.46346L17.3046 6.5686L17.3406 6.64062L17.5567 6.71263L17.5927 6.78465H17.6647L17.7 6.85667H17.772C17.7843 6.88044 17.7958 6.9042 17.808 6.92868H17.88L17.9153 7.0007H17.9874C18.0471 7.07272 18.1062 7.14473 18.1659 7.21171H18.238L18.5174 7.55162L18.696 7.69205V7.76407L18.8746 7.9081C18.8861 7.94266 18.8984 7.98011 18.9099 8.01324L18.9819 8.04853V8.12054L19.0539 8.15582L19.0899 8.26169H19.1252C19.1374 8.3085 19.149 8.35532 19.1612 8.40213L19.2332 8.43741C19.2447 8.48422 19.257 8.53104 19.2685 8.57785L19.3405 8.61313V8.71827H19.3765V8.79029H19.4118L19.4838 9.0013H19.5198V9.10644H19.5551V9.17846H19.5911C19.6027 9.25047 19.6149 9.31888 19.6264 9.38874C19.7415 9.65345 19.8127 9.93511 19.8374 10.2227ZM10.9953 10.9608C10.9085 10.9869 10.8248 11.0221 10.7455 11.066H10.6381V11.1013H10.5661V11.1366H10.4595V11.1711L10.2435 11.2431V11.2784H10.1715V11.3137L9.95543 11.3857L9.91943 11.4577H9.84741V11.493L9.74082 11.5276C9.72858 11.5514 9.71706 11.5751 9.70482 11.5996H9.6328L9.52623 11.7437H9.45421L9.2756 11.9547L8.95442 12.2362V12.3083L8.84783 12.3803L8.81183 12.4854L8.73981 12.5207V12.5927L8.66779 12.6273V12.6993L8.59577 12.7346L8.52375 12.9456H8.48848V13.0176H8.45246L8.38046 13.2286H8.34517C8.26163 13.522 8.17834 13.8148 8.09528 14.1072V14.3888H8.07511C8.04411 14.6953 8.06851 15.0048 8.14713 15.3027C8.15865 15.4193 8.17088 15.5367 8.1824 15.6541H8.21842V15.7981H8.2537V15.9033H8.28972V16.0091H8.32499V16.1143H8.36101V16.1863H8.39631V16.2914H8.43231L8.50433 16.5024H8.5396C8.55184 16.5493 8.56338 16.5961 8.57562 16.6429L8.64764 16.6782C8.65916 16.725 8.67139 16.7718 8.68292 16.8186L8.75494 16.8539V16.9259L8.86223 16.9979V17.0699L8.96882 17.1419V17.214L9.29002 17.4948C9.34907 17.5668 9.40884 17.6389 9.46861 17.7058H9.54063L9.61265 17.8117H9.68465L9.75667 17.9168H9.82869L9.86398 17.9889H9.936V18.0234H10.008C10.0202 18.0472 10.0318 18.0709 10.044 18.0954H10.116V18.0947H10.188V18.13H10.2601V18.1667H10.3321V18.202L10.4761 18.2373V18.2726L10.6922 18.3079V18.3424H10.7642V18.3777H10.9082V18.413H11.0155V18.4483L11.3756 18.4836C11.7015 18.5696 12.0425 18.5817 12.3737 18.5189H12.6618L13.5173 18.2726V18.2387L13.6614 18.2035V18.1667H13.7334V18.1307H13.8407C13.8522 18.107 13.8644 18.0839 13.876 18.0587L14.02 18.0234L14.056 17.9514H14.128V17.9161H14.2L14.2721 17.8103H14.3441C14.365 17.7833 14.3892 17.7591 14.4161 17.7382V16.8244L13.8457 16.5781L13.8097 16.506H13.7377V16.4708H13.6657V16.4355H13.5937V16.4002H13.5216V16.3649H13.4496V16.3303H13.3776V16.295H13.3056V16.2598L13.1616 16.2245L13.1263 16.1524H13.0543V16.1172H12.9823V16.0819H12.9102V16.0567H12.8382V16.0214H12.7662V15.9868H12.6942V15.9515H12.6222V15.9162L12.4782 15.8809L12.4429 15.8089H12.3708C12.2607 15.7319 12.1392 15.6726 12.0108 15.6332C12.0828 15.2883 12.3924 15.0297 12.4738 14.684C12.603 14.7217 12.7248 14.7811 12.8339 14.8598L12.9779 14.8951L13.0132 14.9671H13.0852V15.0024H13.1573V15.0376H13.2293V15.0701H13.3013V15.1046H13.3733V15.1421H13.4453V15.1774H13.5173V15.2141H13.5894V15.2494H13.6614L13.6974 15.3214L13.9134 15.3934V15.4287L14.0575 15.464L14.4175 15.6743V11.246H15.487V13.3194H15.523C15.6764 13.2134 15.8445 13.1307 16.022 13.0738V13.0385H16.0941V13.0032H16.1661V12.9679H16.2381L16.2741 12.8959H16.3461V12.8606H16.4181V12.8232H16.4901V12.7879H16.5622V12.7533H16.6342V12.718H16.7062V12.6827H16.7782V12.6474H16.8502V12.6122H16.9222L16.9575 12.5401H17.0295C17.1452 12.4523 17.2795 12.3921 17.422 12.3644C17.4562 12.4536 17.5049 12.5366 17.566 12.61V12.682H17.6021L17.6741 12.893H17.7094C17.745 13.0102 17.806 13.1182 17.888 13.2092C17.8671 13.2812 17.8923 13.2394 17.8519 13.2812C17.7651 13.3448 17.6675 13.3924 17.5639 13.4216V13.4569H17.4919L17.4566 13.5289H17.3846V13.5642H17.3126V13.5995H17.2405V13.6297H17.1685V13.665H17.0965V13.7018H17.0245L16.5614 13.9833H16.4894V14.0186H16.4174V14.0532H16.3454V14.0885H16.2734V14.1238H16.2014V14.1591H16.1293L16.0933 14.2311L15.9493 14.2664V14.3017H15.8773V14.3369H15.8053V14.3722H15.7333V14.4068H15.6612V14.4421C15.5981 14.4558 15.5377 14.4802 15.4826 14.5141V17.7476C15.5097 17.7683 15.5339 17.7925 15.5546 17.8196H15.6267L15.6987 17.9255L15.8427 17.9608L15.878 18.0328L16.0941 18.1048V18.1401H16.1661V18.1667L16.3821 18.2387V18.274L17.2377 18.5203H17.5257V18.5549C17.8601 18.5888 18.1978 18.5645 18.5239 18.4829L18.8839 18.4476V18.4116H18.9495V18.3763H19.0935V18.341H19.1655V18.3064L19.3816 18.2712V18.2387L19.5976 18.1667V18.1307H19.6696V18.0947L19.8137 18.0594C19.8252 18.0364 19.8374 18.0126 19.849 17.9874L19.993 17.9528L20.029 17.8808H20.101C20.1125 17.8578 20.1248 17.834 20.1363 17.8088L20.2436 17.7742L20.3156 17.6684H20.3876L20.6757 17.3522L20.8917 17.1765V17.1045L20.9991 17.0325V16.9605L21.1056 16.8885V16.8164L21.1776 16.7811C21.1899 16.7343 21.2014 16.6875 21.2136 16.6407L21.2857 16.6054C21.2972 16.5586 21.3094 16.5118 21.321 16.465H21.357V16.393H21.3923L21.4643 16.182H21.5003C21.5118 16.11 21.524 16.0416 21.5356 15.9717H21.5716V15.8658H21.6069V15.7758H21.6429V15.6318H21.6782V15.4877H21.7142V15.2861H21.7495V15.0045H21.7854V14.3722H21.7495V14.0906C21.6664 13.7983 21.5833 13.5054 21.5003 13.2121H21.4643L21.3923 13.001H21.357V12.929H21.321L21.2489 12.718L21.1769 12.6827V12.6107L21.1049 12.5761V12.5041L21.0329 12.4689C21.0214 12.4336 21.0091 12.3968 20.9976 12.3637L20.8903 12.2917V12.2197L20.5698 11.9381C20.5101 11.8661 20.4503 11.7977 20.3912 11.7271H20.3192L20.2119 11.5831H20.1399L20.1046 11.511L19.9973 11.4765V11.4412H19.9253L19.89 11.3692L19.6739 11.2971V11.2619H19.6019V11.2266L19.3859 11.1546V11.12H19.2786V11.0847H19.2066V11.066H19.1C19.0204 11.0227 18.9367 10.9875 18.8501 10.9608C18.8487 10.5155 18.7639 10.0744 18.6002 9.66024C18.5887 9.58822 18.5764 9.51981 18.5649 9.44923H18.5174C18.5059 9.40242 18.4936 9.35562 18.4821 9.30881H18.4454V9.20294L18.3733 9.16837V9.09635H18.3381L18.266 8.88534L18.194 8.85006V8.77805L18.122 8.74275V8.67075L18.0147 8.59873V8.52672L17.8707 8.42157V8.34956L17.6215 8.13855L17.5495 8.0334H17.4775L17.2989 7.82239H17.2269L17.1908 7.75039L17.0843 7.71581V7.68053H17.0123L16.9762 7.60851L16.8322 7.57322L16.7969 7.5012L16.4757 7.39534V7.36078L16.3317 7.32548V7.2902H16.2251V7.25491H16.1178C15.3321 6.98523 14.4788 6.98523 13.693 7.25491L13.477 7.2902V7.32548L13.333 7.36078V7.39534L13.0125 7.5012L12.9765 7.57322L12.8325 7.60851L12.7972 7.68053H12.7252V7.72445L12.6179 7.75902C12.6063 7.78279 12.5941 7.80584 12.5826 7.83104H12.5106C12.4508 7.90306 12.391 7.97147 12.332 8.04205C11.9057 8.39821 11.5645 8.84514 11.3333 9.35014C11.102 9.85515 10.9865 10.4055 10.9953 10.9608Z" fill="white" fill-opacity="0.6"/>
</svg>
