<svg width="30" height="30" viewBox="0 0 30 30" fill="none" xmlns="http://www.w3.org/2000/svg">
<circle cx="15" cy="15" r="15" fill="#090B13"/>
<path fill-rule="evenodd" clip-rule="evenodd" d="M9.39728 9.09802H22.0631C22.5575 9.02901 23.0613 9.11008 23.5091 9.33073C23.5221 9.35666 23.535 9.3826 23.5487 9.40854L23.744 9.56344C23.9413 9.87456 24.0241 10.2447 23.9781 10.6103C23.7533 11.3416 23.6662 12.209 23.4313 12.9359C23.4183 13.0649 23.4053 13.1939 23.3917 13.3236H23.3556V13.4785H23.3167V13.6723H23.2778V13.8661H23.2382V14.021H23.1993V14.2148C23.1272 14.4345 23.0775 14.7306 23.004 14.9518C22.9781 15.1324 22.9519 15.3132 22.9255 15.4943C22.7461 16.0469 22.6748 16.7242 22.4932 17.2775C22.4668 17.4451 22.4406 17.6132 22.4147 17.7818H22.3758C22.3499 17.8596 22.3232 17.9367 22.2973 18.0145H22.2584L22.2195 18.1694L22.1409 18.2083V18.2861L21.9068 18.48C21.8542 18.5441 21.8023 18.6089 21.7504 18.6738H21.6719L21.633 18.7508H21.5545V18.7898L21.3203 18.8676V18.9057L21.0854 18.9447V18.9836H20.8902V19.0225H10.6091V18.9836H10.4131V18.9468L10.179 18.9079V18.8697L9.94412 18.7919V18.7523H9.86631C9.85334 18.7264 9.84037 18.7004 9.82669 18.6752H9.74887L9.67034 18.5585H9.59469L9.51616 18.4425H9.47726V18.3647L9.31875 18.248L9.27985 18.0931L9.20131 18.0542L9.1624 17.8604H9.1235V17.7825H9.0846V17.6716H9.04497L9.00607 17.1673H8.96716V16.7797H8.92825V16.4309H8.88863V16.0433H8.84973L8.81082 15.307C8.65592 14.7667 8.73085 14.0253 8.57595 13.485V13.0973H8.53704L8.49814 12.361C8.34251 11.8214 8.41816 11.0793 8.26326 10.539V10.1513H8.2258V9.80263H8.1869V9.41502H8.14727V9.06199H8.10836V8.67438H8.06946V8.32567H8.03055C8.00413 7.96399 7.97796 7.60232 7.95202 7.24065H6.46642V7.20174L6.27117 7.16283C6.19024 7.08481 6.1241 6.99279 6.07592 6.89122C6.02604 6.79557 6 6.6893 6 6.58142C6 6.47355 6.02604 6.36727 6.07592 6.27162C6.19263 6.16312 6.3241 6.07168 6.46642 6H8.65808V6.03891L8.85332 6.07781L8.97077 6.23271H9.00967V6.3098L9.0882 6.3487C9.18954 7.2661 9.29257 8.18254 9.39728 9.09802ZM9.514 10.3387C9.52697 10.4936 9.54065 10.6485 9.55362 10.8041H9.59469V11.1917H9.6336V11.5404H9.6725V11.928H9.71212V12.2767H9.75103V12.6643H9.78993V13.013H9.82884V13.4007H9.86847V13.7501H9.90738V14.1413C10.0652 14.686 9.98518 15.4172 10.1422 15.9626V16.3502C10.2777 16.8178 10.1293 17.583 10.6113 17.7076C10.8339 17.7985 11.0775 17.8252 11.3144 17.7847H18.1949C19.1205 17.8365 20.0489 17.8107 20.9702 17.7076C21.0487 17.6168 21.1265 17.5261 21.205 17.436V17.32H21.2439V17.1673H21.2829V16.9735H21.3225V16.8186H21.3614V16.6247C21.5055 16.1802 21.5696 15.6319 21.713 15.1903C21.7259 15.0613 21.7396 14.9324 21.7526 14.8027C21.9327 14.2501 22.0026 13.5728 22.1849 13.0195C22.1986 12.8906 22.2115 12.7616 22.2245 12.6319H22.2634V12.477H22.3023V12.2832H22.3412V12.0894H22.3808V11.9345H22.4197L22.4586 11.5469H22.4911C22.5689 11.1463 22.6469 10.7457 22.7252 10.3451H9.51183L9.514 10.3387ZM11.3519 20.2624L12.0947 20.3006V20.3395L12.3289 20.3784V20.4173L12.5637 20.4944V20.5333H12.6416L12.6805 20.6111H12.759L12.9931 20.882L13.1502 20.9987V21.0758L13.228 21.1147C13.2539 21.1925 13.2799 21.2696 13.3065 21.3474H13.3454V21.4252H13.3843V21.5412C13.5027 21.8089 13.5434 22.1045 13.5018 22.3943H13.4629V22.5881H13.4233V22.7041H13.3843V22.8208H13.3454V22.8979H13.3065C13.2799 22.9757 13.2539 23.0528 13.228 23.1306C13.1123 23.2739 12.9811 23.4039 12.8368 23.5182L12.759 23.6342H12.6805L12.6416 23.712L12.4074 23.7898V23.828H12.3325V23.8676H12.215V23.9065H12.0947V23.9454H11.9002V23.9843C11.6084 24.0255 11.3109 23.9851 11.0407 23.8676H10.9232V23.8287L10.7669 23.7905V23.7516L10.6106 23.7127C10.5976 23.6868 10.5846 23.6608 10.5709 23.6349H10.4931L10.3368 23.4411L10.1019 23.2473V23.1702L10.0241 23.1313L9.98519 22.9764H9.94556L9.90665 22.8215H9.86775V22.7048H9.82813C9.72292 22.3243 9.72292 21.9224 9.82813 21.5419H9.86775V21.4259H9.90665V21.3481H9.94556C9.97149 21.2703 9.99815 21.1932 10.0241 21.1154L10.1019 21.0765V20.9994L10.2193 20.9216C10.374 20.7367 10.5592 20.5795 10.7669 20.4569L11.3519 20.2624ZM18.857 20.2624L19.5998 20.3006V20.3395L19.8347 20.3784V20.4173L20.0689 20.4944V20.5333H20.1474L20.1863 20.6111H20.2648L20.499 20.882L20.6553 20.9987V21.0758L20.7339 21.1147L20.8117 21.3474H20.8513V21.4252H20.8902V21.5412C21.0086 21.8089 21.0493 22.1045 21.0076 22.3943H20.968V22.5881H20.9291V22.7041H20.8902V22.8208H20.8513V22.8979H20.8117L20.7339 23.1306C20.6182 23.2739 20.487 23.4039 20.3426 23.5182L20.2648 23.6342H20.1856L20.1467 23.712L19.9118 23.7898V23.828H19.834V23.8676H19.7173V23.9065H19.5998V23.9454H19.4046V23.9843C19.1126 24.0255 18.8148 23.9851 18.5443 23.8676H18.4276V23.8287L18.2713 23.7905V23.7516L18.1142 23.7127L18.0753 23.6349H17.9975C17.9449 23.5708 17.893 23.5059 17.8412 23.4411L17.6063 23.2473V23.1702L17.5285 23.1313C17.5148 23.0794 17.5018 23.0283 17.4889 22.9764H17.4478L17.4089 22.8215H17.3758V22.7048H17.3325C17.227 22.3244 17.227 21.9224 17.3325 21.5419H17.3758V21.4259H17.4147V21.3481H17.4478C17.4737 21.2703 17.4997 21.1932 17.5263 21.1154L17.6041 21.0765V20.9994L17.7216 20.9216C17.8763 20.7367 18.0615 20.5795 18.2691 20.4569L18.857 20.2624ZM11.4679 21.5052V21.5441L11.2727 21.583V21.6219L11.0774 21.7768V21.8546C11.0275 21.9503 11.0015 22.0566 11.0015 22.1644C11.0015 22.2723 11.0275 22.3786 11.0774 22.4742C11.1564 22.5547 11.2491 22.6203 11.3512 22.668C11.448 22.7174 11.5552 22.7432 11.6639 22.7432C11.7726 22.7432 11.8797 22.7174 11.9766 22.668C12.0569 22.5897 12.1229 22.4981 12.1718 22.3971C12.2215 22.3013 12.2475 22.1949 12.2475 22.087C12.2475 21.979 12.2215 21.8726 12.1718 21.7768C12.0927 21.6965 12 21.6309 11.898 21.583C11.769 21.5054 11.616 21.4778 11.4679 21.5052ZM18.9738 21.5052V21.5441L18.7785 21.583V21.6219C18.7129 21.6731 18.6481 21.7249 18.5833 21.7768V21.8546C18.5334 21.9503 18.5073 22.0566 18.5073 22.1644C18.5073 22.2723 18.5334 22.3786 18.5833 22.4742C18.6621 22.5545 18.7545 22.6201 18.8563 22.668C18.9533 22.7174 19.0605 22.7432 19.1694 22.7432C19.2782 22.7432 19.3854 22.7174 19.4824 22.668C19.5627 22.5897 19.6288 22.4981 19.6776 22.3971C19.7272 22.3013 19.753 22.1949 19.753 22.087C19.753 21.9791 19.7272 21.8727 19.6776 21.7768C19.5984 21.6967 19.5058 21.6311 19.4039 21.583C19.275 21.5056 19.1223 21.4779 18.9745 21.5052H18.9738Z" fill="white" fill-opacity="0.6"/>
</svg>
