<svg xmlns="http://www.w3.org/2000/svg" xmlns:xlink="http://www.w3.org/1999/xlink" viewBox="0 0 475.37 224.23"><defs><style>.cls-1{fill:none;}.cls-2{clip-path:url(#clip-path);}.cls-3{fill:#fff;}.cls-4{clip-path:url(#clip-path-2);}</style><clipPath id="clip-path"><polygon class="cls-1" points="242.36 32.4 242.36 16 193.75 0.77 193.75 153.94 242.36 153.94 326.71 153.94 326.71 53.48 242.36 32.4"/></clipPath><clipPath id="clip-path-2"><path class="cls-1" d="M155.38,151.79V43.47a.57.57,0,0,1,.16-.41L193.74.77V153.94Z"/></clipPath></defs><g id="Layer_2" data-name="Layer 2"><g id="Layer_1-2" data-name="Layer 1"><g class="cls-2"><path class="cls-3" d="M150.78,118.83,193,103a2.16,2.16,0,0,1,1-.12H194l138.25,15.73-.06.65L193.54,107.94l1.05-.12-43.17,12.91Z"/><polygon class="cls-3" points="330.96 85.17 186.61 59.79 187.39 55.67 331.05 84.69 330.96 85.17"/></g><g class="cls-4"><polygon class="cls-3" points="151.09 119.75 193.06 103.26 194.51 107.59 151.11 119.81 151.09 119.75"/><polygon class="cls-3" points="210.74 51.53 152.21 85.59 152.03 85.31 207.94 47.1 210.74 51.53"/></g><path class="cls-3" d="M153.41,154.17c0-18.34.05-36.69.23-54.94L154,71.14l.41-27.91v0a1,1,0,0,1,.26-.64l19.59-21L184,11.07c3.26-3.51,6.55-7,9.77-10.52a.55.55,0,0,1,.76,0,.56.56,0,0,1,.17.39h0l.76,95.35.39,47.68,0,5.95,0,1.49v1c0,.15,0,.29,0,.43a4.06,4.06,0,0,1-.21.85,3.75,3.75,0,0,1-2.43,2.28,3.54,3.54,0,0,1-.85.16h-.57l-.77,0-12.31-.59c-8.13-.42-16.07-.87-23.85-1.19Zm3.94-.89c7.58-.26,15-.6,22.29-.93l11.54-.5.71,0h.18c.07,0,0,0,0,0H192a.5.5,0,0,0-.37.28.51.51,0,0,0,0,.13s0,0,0,.06v-.92l0-1.49.08-6,.67-47.67L193.66.91l.93.36c-3.24,3.52-6.42,7.1-9.64,10.64l-9.61,10.66L156.1,43.9l.26-.67.41,27.38.34,27.19q.27,27.11.24,54Z"/><path class="cls-3" d="M241.3,33.23c-.06-5.78,0-11.59.18-17.23l.7.59c-4.1-1.11-8.17-2.33-12.26-3.49l-12.2-3.66c-4.07-1.2-8.11-2.49-12.17-3.74l-6.08-1.92-3-1-1.52-.48c-.25-.1-.52-.11-.72-.36a3.92,3.92,0,0,1-.55-.91l.25-.3.1.7h.14l1,152-1.41-1.42,33.23.3,16.62.13h16.62l66.48,0-1.5,1.5L326,53.48l.53.68C298.24,47.31,269.76,40.35,241.3,33.23Zm2.13-1.67c27.77,6.94,55.52,14,83.45,21.25a.7.7,0,0,1,.53.67l.8,100.46a1.47,1.47,0,0,1-1.47,1.5h0l-66.49,0H243.6L227,155.24l-33.25-.34h0a1.41,1.41,0,0,1-1.4-1.42l1-152h.14l.1-.7a.35.35,0,0,1,.17-.26l.08,0a3.72,3.72,0,0,1,1-.44,1.35,1.35,0,0,1,.8.12l1.52.47,3,.94,6.08,1.89c4.05,1.29,8.1,2.54,12.14,3.87l12.11,3.95c4,1.38,8.05,2.7,12.05,4.13l.36.13a.52.52,0,0,1,.34.47C243.41,21.29,243.48,26.41,243.43,31.56Z"/><path class="cls-3" d="M24.28,154.71c18.07-.34,36.13-.48,54.19-.73l54.19-.42c18.07-.18,36.13-.14,54.19-.21l54.2-.14,54.19.14c18.06.07,36.12,0,54.19.21l54.19.42c18.06.25,36.12.39,54.19.73-18.07.34-36.13.49-54.19.74l-54.19.41c-18.07.19-36.13.15-54.19.22l-54.19.13-54.2-.14c-18.06-.06-36.12,0-54.19-.21l-54.19-.42C60.41,155.2,42.35,155.05,24.28,154.71Z"/><path class="cls-3" d="M30.41,222.85h4.46l-17-39.8h-.71L0,222.85H4.46l3.22-9.65h19.6ZM8.7,210.2l8.81-26,8.76,26Z"/><path class="cls-3" d="M231.94,222.85h4.47l-17-39.8h-.71l-17.11,39.8H206l3.21-9.65h19.6ZM210.23,210.2l8.82-26,8.75,26Z"/><polygon class="cls-3" points="97.61 223.01 95.62 223.02 94.61 223.03 94.61 223.03 69.54 189.15 70.35 223.01 67.35 223.03 67.67 186.74 67.67 186.73 67.7 183.91 69.28 183.89 69.41 184.07 69.41 184.08 94.67 216.87 94.97 183.91 96.68 183.89 97.55 220.63 97.61 223.01"/><path class="cls-3" d="M131.84,183.2a20.1,20.1,0,1,0,20.09,20.09A20.1,20.1,0,0,0,131.84,183.2Zm0,36.29a17.2,17.2,0,1,1,17.2-17.2A17.2,17.2,0,0,1,131.84,219.49Z"/><path class="cls-3" d="M333.15,183.2a20.1,20.1,0,1,0,20.1,20.09A20.09,20.09,0,0,0,333.15,183.2Zm0,36.29a17.2,17.2,0,1,1,17.2-17.2A17.2,17.2,0,0,1,333.15,219.49Z"/><polygon class="cls-3" points="177.9 222.9 180.4 222.9 181.15 221.05 195.34 183.76 193.14 183.76 179.15 216.62 164.23 183.76 162.02 183.76 177.14 221.04 177.9 222.9"/><polygon class="cls-3" points="299.38 222.79 298.11 183.85 296.65 183.85 296.13 200 271.58 200 271.05 183.85 269.6 183.85 268.33 222.79 272.33 222.79 271.68 203 296.03 203 295.38 222.79 299.38 222.79"/><path class="cls-3" d="M396.56,183.68c.17,3.91.24,7.82.36,11.73l.21,11.73,0,1.48c0,.53,0,1-.06,1.58a15.47,15.47,0,0,1-.57,3.14,14.54,14.54,0,0,1-3.06,5.66,14.17,14.17,0,0,1-5.32,3.7,17.39,17.39,0,0,1-12.54,0,14.28,14.28,0,0,1-5.32-3.7,14.61,14.61,0,0,1-3.06-5.66,16.19,16.19,0,0,1-.57-3.14c0-.53-.06-1-.05-1.58l0-1.48.21-11.73c.13-3.91.2-7.82.37-11.73h1.42c.17,3.91.25,7.82.37,11.73l.21,11.73,0,1.45c0,.46.05.91.1,1.35a14.49,14.49,0,0,0,.53,2.62,11.77,11.77,0,0,0,2.55,4.52,13.59,13.59,0,0,0,18.91,0,11.71,11.71,0,0,0,2.55-4.52,14.49,14.49,0,0,0,.53-2.62c0-.44.09-.89.1-1.35l0-1.45.21-11.73c.12-3.91.2-7.82.36-11.73Z"/><path class="cls-3" d="M432.61,189.66c-2.32-2.58-5.55-4.64-8.9-4.89a7,7,0,0,0-7.34,5.14,7.46,7.46,0,0,0,.17,4.74,7.82,7.82,0,0,0,3.1,3.64,22.75,22.75,0,0,0,4.75,2.31c1.7.65,3.5,1.23,5.29,2.11a15.72,15.72,0,0,1,2.61,1.57,11.54,11.54,0,0,1,2.22,2.25,11,11,0,0,1,2.2,5.94,10.28,10.28,0,0,1-1.76,6.16,12.16,12.16,0,0,1-4.75,4.14,15.89,15.89,0,0,1-12.1.5,18.29,18.29,0,0,1-9.26-7.79l3-1.85a14.89,14.89,0,0,0,7.33,6.5,12.64,12.64,0,0,0,9.65-.15,9.14,9.14,0,0,0,3.63-3,7.23,7.23,0,0,0,1.35-4.36,8,8,0,0,0-1.55-4.42,10,10,0,0,0-3.78-3.08c-3.09-1.57-6.93-2.45-10.25-4.79a12.42,12.42,0,0,1-2.3-2.07,9.55,9.55,0,0,1-1.59-2.75,9.74,9.74,0,0,1-.12-6.22,9.18,9.18,0,0,1,3.67-5l.66-.43c.23-.13.48-.23.71-.34a8.81,8.81,0,0,1,1.49-.53,9.29,9.29,0,0,1,3.1-.22,13.13,13.13,0,0,1,5.65,1.94,18.11,18.11,0,0,1,4.47,3.8Z"/><polygon class="cls-3" points="475.37 186.25 475.37 184.09 451.16 183.52 451.16 183.92 450.86 219.69 450.86 219.69 450.85 219.73 450.83 222.85 450.83 222.85 450.83 223.11 475.37 222.43 475.37 220.27 454.46 219.78 454.32 203.14 471.38 203.14 471.38 200.14 454.3 200.14 454.18 186.74 475.37 186.25"/></g></g></svg>