<svg xmlns="http://www.w3.org/2000/svg" width="58" height="130" viewBox="0 0 58 130">
  <defs>
    <style>
      .cls-1 {
        fill: #ffffff;
        fill-rule: evenodd;
      }
    </style>
  </defs>
  <path id="Фигура_1" data-name="Фигура 1" class="cls-1" d="M241.28,85H241.6v0.24h15.649a2.7,2.7,0,0,0,1.2-.08c0.091-.091.032,0,0.08-0.16h0.159v0.24a0.241,0.241,0,0,1,.24.16,2.345,2.345,0,0,1,.159,1.362s-0.105,0-.079.16a21.437,21.437,0,0,1,.079,2.885v28.773a7.42,7.42,0,0,1-.079,1.523v0.4h0.079v0.561h-0.079v1.2h0.079a2,2,0,0,1-.079.881l-0.32.081V123.15a0.285,0.285,0,0,1-.239-0.16h-0.08v-0.16l-0.24-.16v-0.081h-0.159c-0.027-.053-0.054-0.106-0.08-0.16h-0.08v-0.16l-0.8-.722-0.4-.48H256.45c-0.027-.054-0.054-0.107-0.08-0.161l-0.4-.32a0.756,0.756,0,0,0-.16-0.321c0.158-3.421.08-7.185,0.08-10.74v-20.2h-0.08V88.607a0.664,0.664,0,0,0-.479-0.16,1.85,1.85,0,0,0-.8,0h-10.3c-0.027.08-.053,0.16-0.08,0.24a5.876,5.876,0,0,0-.08,1.763v26.128a4.742,4.742,0,0,0,.16,1.683,1.428,1.428,0,0,0,.319.561h0.16V118.9c0.08,0.053.16,0.106,0.239,0.16v0.16h0.08c0.054,0.08.107,0.16,0.16,0.241l0.319,0.08c0.027,0.08.054,0.16,0.08,0.24l0.16,0.08v0.161l0.16,0.08,0.4,0.481h0.159l0.24,0.32,0.639,0.561v0.161l0.159,0.08c0.054,0.08.107,0.16,0.16,0.24h0.16l0.159,0.241,0.16,0.08v0.16h0.08l0.16,0.241h0.159l0.32,0.4,0.159,0.08c0.027,0.081.054,0.161,0.08,0.241l0.4,0.32c0.027,0.054.054,0.107,0.08,0.161h0.16l0.4,0.561h0.16l0.239,0.32,0.639,0.561,0.16,0.321,0.239,0.08,0.479,0.561,0.32,0.241c0.026,0.08.053,0.16,0.08,0.24l0.638,0.481v0.16l0.559,0.481v0.08h0.16v0.161h0.16c0.026,0.08.053,0.16,0.079,0.24l0.479,0.4c0.027,0.053.054,0.107,0.08,0.16h0.16V129c0.053,0.027.106,0.054,0.16,0.08v0.161h0.08l0.159,0.24h0.16l0.16,0.241,0.159,0.08v0.16h0.08c0.027,0.053.053,0.107,0.08,0.16h0.16v0.08l0.239,0.161a3.14,3.14,0,0,0,.32.481h0.079c0.027,0.053.054,0.106,0.08,0.16h0.16l0.08,0.16,0.319,0.241v0.16l0.319,0.24c0.027,0.054.054,0.107,0.08,0.161h0.16l0.16,0.24,0.159,0.08v0.161l0.4,0.24,0.239,0.321h0.08v0.16h0.08a0.972,0.972,0,0,0,.159.24v41.277q-0.039.842-.079,1.683a12.705,12.705,0,0,1,.079,2.805v1.042h-0.079c-0.027.107-.054,0.214-0.08,0.32l-0.8.722-0.239.4h-0.16v0.081a1.4,1.4,0,0,1-.559.4V182.3h-0.08l-0.4.481H256.53c-0.054.106-.107,0.213-0.16,0.32l-0.8.721c-0.026.081-.053,0.161-0.079,0.241h-0.08l-0.16.24h-0.16l-0.159.241-0.639.561-0.16.24h-0.08v0.161l-0.718.561-0.878.961-0.32.161v0.16l-0.4.321c-0.027.053-.053,0.106-0.08,0.16H251.5c-0.027.08-.054,0.16-0.08,0.24l-0.8.722c-0.08.106-.159,0.213-0.239,0.32h-0.4c-0.107-.133-0.213-0.267-0.32-0.4H249.5v-0.08l-0.159-.08v-0.16l-0.24-.16-0.479-.561h-0.159v-0.081h-0.08c-0.156-.183.086-0.145-0.24-0.24v-0.16a3.41,3.41,0,0,1-.4-0.4l-0.24-.08v-0.161l-0.239-.16v-0.08l-0.4-.24v-0.161l-0.24-.08c-0.106-.16-0.213-0.32-0.319-0.481-0.267-.267-0.612-0.454-0.878-0.721l-0.32-.4-0.16-.08a0.75,0.75,0,0,0-.479-0.481V183.5l-1.357-1.283a1.179,1.179,0,0,0-.559-0.48v-0.161l-0.718-.641c-0.027-.053-0.054-0.107-0.08-0.16H241.6l-0.16-.241H241.36v-0.16l-0.4-.24V135.092a5.313,5.313,0,0,1,0-1.522v-0.962a0.213,0.213,0,0,1-.079-0.241h0.079v-1.2h-0.079a3.566,3.566,0,0,1,.079-1.362,0.823,0.823,0,0,1,.479,0v0.16l0.559,0.4v0.16l0.16,0.08v0.08h0.16c0.026,0.054.053,0.107,0.08,0.161h0.079c0.027,0.106.054,0.213,0.08,0.32l0.479,0.241v0.16l0.4,0.321,0.638,0.721v42.8c0,0.7-.148,2.781.16,3.126a1.084,1.084,0,0,0,.479.641v0.08h0.16v0.16a2.508,2.508,0,0,1,.479.481l1.117,1.122,1.438,1.363c0.026,0.08.053,0.16,0.079,0.24l0.48,0.241v0.16l0.558,0.481c0.054,0.08.107,0.16,0.16,0.24h0.16v0.08L249.5,183.9v0.16l0.559,0.481v0.08h0.24a8.275,8.275,0,0,1,1.277-1.282l0.4-.561h0.159V182.7l0.24-.08c0.026-.08.053-0.16,0.08-0.24l0.479-.4,1.117-1.2,0.479-.4c0.027-.053.054-0.107,0.08-0.16h0.16l0.08-.161h0.08c0.026-.106.053-0.213,0.08-0.32l0.239-.08,0.559-.641c0.129-8.987.08-18.988,0.08-28.373V135.012h-0.08v-0.32l-0.16-.08v-0.161l-0.159-.08a2.676,2.676,0,0,1-.639-0.8,2,2,0,0,1-.8-0.722l-0.558-.481c-0.054-.08-0.107-0.16-0.16-0.24h-0.16c-0.026-.053-0.053-0.107-0.08-0.16h-0.079v-0.161l-0.639-.561-0.16-.24h-0.16v-0.08l-0.239-.161V130.6l-0.639-.561c-0.053-.08-0.106-0.16-0.16-0.24h-0.159l-0.32-.4h-0.079c-0.027-.08-0.054-0.16-0.08-0.24h-0.16v-0.081l-0.16-.08v-0.16l-0.159-.08c-0.027-.08-0.054-0.161-0.08-0.241h-0.16l-1.2-1.282-0.4-.24v-0.161l-0.638-.561c-0.027-.08-0.054-0.16-0.08-0.24h-0.16l-0.639-.722-1.038-.881v-0.16l-0.559-.481v-0.161l-0.319-.16q-0.558-.6-1.118-1.2l-0.479-.321v-0.16l-0.159-.08a1.611,1.611,0,0,1-.479-0.641c-0.551-.149-0.726-0.889-1.278-1.042-0.027-.134-0.053-0.268-0.08-0.4h-0.08v-0.481h-0.079c0.026-.08.053-0.16,0.079-0.24v-0.8h-0.079V117.54h0.079v-0.08q-0.039-.8-0.079-1.6,0.039-1.563.079-3.126V89.969h-0.079V88.607a20.886,20.886,0,0,1,.079-3.206,0.933,0.933,0,0,1,.32-0.16V85Zm7.345,8.095c0.666,0,2.763-.138,2.954.241v22.442a0.314,0.314,0,0,0-.159.16c-0.161-.046-0.069.01-0.16-0.08a2.049,2.049,0,0,1-.878-0.8l-0.479-.4c-0.027-.054-0.054-0.107-0.08-0.161h-0.16l-0.08-.16H249.5v-0.16l-0.8-.721a2.085,2.085,0,0,0-.319-0.481V93.335A1.478,1.478,0,0,0,248.625,93.095Zm-11.178,8.255a19.251,19.251,0,0,1,.08,2.966v72.373a0.828,0.828,0,0,1-.319.08,7.523,7.523,0,0,0-1.2-1.2v-0.08l-0.159-.08v-0.16l-0.32-.161v-0.16h-0.08l-0.319-.4h-0.16l-0.559-.641V106.239h0.08c0.027-.16.053-0.32,0.08-0.481l0.24-.16,0.159-.481,0.16-.08v-0.16h0.08v-0.161h0.08v-0.16h0.08V104.4l0.159-.08v-0.161l0.16-.08v-0.16l0.16-.08c0.026-.107.053-0.214,0.079-0.321l0.16-.08v-0.16l0.16-.08v-0.161l0.159-.08v-0.16h0.08v-0.16h0.08v-0.161h0.08v-0.16h0.08l0.159-.481h0.08v-0.16l0.16-.08c0.027-.081.053-0.161,0.08-0.241h0.239Zm25.071,0h0.239v0.08a2.83,2.83,0,0,1,.4.561c0.027,0.134.054,0.268,0.08,0.4h0.08v0.16h0.08c0.027,0.081.053,0.161,0.08,0.241l0.159,0.08v0.16l0.16,0.08c0.027,0.081.053,0.161,0.08,0.241h0.08l0.159,0.481c0.054,0.026.107,0.053,0.16,0.08,0.027,0.107.053,0.214,0.08,0.321l0.16,0.08c0.026,0.08.053,0.16,0.08,0.24h0.079c0.054,0.16.107,0.321,0.16,0.481l0.16,0.08c0.026,0.134.053,0.267,0.08,0.4l0.319,0.24c0.027,0.134.053,0.267,0.08,0.4h0.08v66.683a3.511,3.511,0,0,1-.08,1.2l-1.118.962v0.16l-1.2,1.123a0.759,0.759,0,0,1-.638.48,6.151,6.151,0,0,1-.08-1.683V103.274A7.056,7.056,0,0,1,262.518,101.35Zm-31.777,68.607h-0.32a2.41,2.41,0,0,1-.479-0.641h-0.159c-0.107-.134-0.213-0.268-0.32-0.4h-0.08c-0.026-.08-0.053-0.16-0.079-0.241h-0.16l-0.4-.48-0.24-.161v-0.16l-0.239-.16v-0.08h-0.16v-0.081a0.767,0.767,0,0,1-.319-0.48h-0.08V123.391a6.746,6.746,0,0,0,.319-0.721l0.24-.081a3.227,3.227,0,0,1,.4-0.881l0.159-.08q0.081-.242.16-0.481h0.08c0.027-.08.053-0.161,0.08-0.241l0.16-.08v-0.16h0.079v-0.16h0.08v-0.161h0.08v-0.16h0.08c0.027-.107.053-0.214,0.08-0.321h0.08c0.026-.08.053-0.16,0.079-0.24l0.16-.08v-0.161l0.16-.08a0.828,0.828,0,0,1,.479-0.641c0.026,0.054.053,0.107,0.08,0.16a1.12,1.12,0,0,1,.159.882h-0.079q0.039,1.2.079,2.4v43.04a12.893,12.893,0,0,1-.079,2.805c0.026,0.241.053,0.481,0.079,0.721A4.28,4.28,0,0,1,230.741,169.957Zm39.921-1.283v0.161h-0.08l-0.4.481h-0.159a1.6,1.6,0,0,1-.559.641,0.243,0.243,0,0,1-.24-0.16,1.467,1.467,0,0,1-.159-0.962V122.429a10.039,10.039,0,0,1,.08-2.164v-0.481h-0.08a1.688,1.688,0,0,1,.159-1.042l0.24-.08c0.085,0.162.232,0.327,0.319,0.481v0.16l0.16,0.08c0.027,0.107.053,0.214,0.08,0.321l0.159,0.08c0.027,0.107.054,0.214,0.08,0.321l0.16,0.08c0.053,0.16.106,0.321,0.16,0.481h0.08c0.026,0.08.053,0.16,0.079,0.24l0.16,0.08v0.161h0.08v0.16h0.08v0.16h0.08v0.161h0.079v0.16l0.32,0.24c0.026,0.134.053,0.268,0.08,0.4l0.4,0.321a3.375,3.375,0,0,1,.16.641h0.079q0.041,0.561.08,1.122h-0.08v42.559h-0.079v0.16q-0.2.24-.4,0.481l-0.239.08v0.16l-0.16.08-0.559.641h-0.159Zm-46.628-35.425a39.106,39.106,0,0,1,.08,5.45v23.243a6.493,6.493,0,0,1,0,1.2,0.994,0.994,0,0,1-.4.08,7.023,7.023,0,0,0-1.2-1.2l-0.8-.962-0.24-.08c-0.08-.107-0.16-0.213-0.239-0.32h-0.08V160.5c-0.054-.026-0.107-0.053-0.16-0.08V137.657h0.16l0.159-.24h0.08v-0.241h0.08v-0.16h0.08v-0.16l0.239-.161q0.081-.24.16-0.48l0.16-.081v-0.16h0.08v-0.16c0.079-.054.159-0.107,0.239-0.16,0.027-.134.053-0.268,0.08-0.4l0.319-.241,0.24-.721,0.239-.16V133.97h0.08C223.6,133.61,223.512,133.312,224.034,133.249Zm51.9,0h0.24l0.159,0.241h0.08v0.16h0.08v0.16h0.08v0.16h0.08v0.161l0.159,0.08v0.16l0.16,0.08v0.161h0.08v0.16h0.08v0.24l0.319,0.241c0.027,0.133.053,0.267,0.08,0.4l0.319,0.24v0.16h0.08v0.161h0.08v0.16h0.08c0.026,0.107.053,0.214,0.08,0.32l0.319,0.241c0.21,0.314.031,0.6,0.479,0.721V158.9a3.69,3.69,0,0,1-.08,1.523,2.481,2.481,0,0,1-.958.962,0.78,0.78,0,0,1-.4.4,1.365,1.365,0,0,1-.4.561h-0.08l-0.08.24h-0.16v0.08l-0.239.161-0.32.4h-0.319a26.747,26.747,0,0,1-.08-4.007V135.573A15.239,15.239,0,0,1,275.931,133.249Zm-26.507,44.562a0.915,0.915,0,0,1-.479-0.4l-0.24-.161c-0.027-.08-0.053-0.16-0.08-0.24l-0.159-.08a6.86,6.86,0,0,1-.08-2v-38.15a0.663,0.663,0,0,1,.479-0.161c0.106,0.161.213,0.321,0.319,0.481h0.16v0.08l0.159,0.08v0.161h0.08c0.027,0.053.054,0.107,0.08,0.16h0.16v0.08l0.239,0.16v0.161l0.24,0.16v0.08h0.16v0.08l0.239,0.161c0.027,0.08.053,0.16,0.08,0.24l0.639,0.561c0.026,0.107.053,0.214,0.08,0.321h0.079V150.8c0,8.868.139,17.957-.079,26.69-0.482.276-.887,0.97-1.438,1.042A2.769,2.769,0,0,1,249.424,177.811Zm-6.068,26.449a13.947,13.947,0,0,1,.08-2.324,0.908,0.908,0,0,1,.319-0.16,3.12,3.12,0,0,1,1.118,0h4.87v0.08h0.24v0.08h0.159v0.08l0.559,0.08v0.08l0.319,0.08v0.081h0.16v0.08h0.32v0.08h0.159c0.027,0.053.053,0.107,0.08,0.16l0.319,0.08,0.24,0.321h0.16l0.079,0.16,0.32,0.08c0.026,0.054.053,0.107,0.08,0.161l0.479,0.4v0.161l0.319,0.24v0.16l0.319,0.241c0.027,0.107.054,0.214,0.08,0.32h0.08c0.053,0.161.107,0.321,0.16,0.481h0.08V205.7l0.159,0.08v0.16h0.08v0.4h0.08v0.321h0.08v0.16h0.08v0.32h0.08v2.485h-0.08v0.241h-0.08v0.32h-0.08v0.4h-0.08v0.24h-0.08v0.241h-0.08c-0.026.107-.053,0.213-0.079,0.32h-0.08v0.161l-0.16.08c-0.026.107-.053,0.214-0.08,0.32l-0.159.081v0.16l-0.24.16v0.16l-0.559.4a1.945,1.945,0,0,1-.159.4h-0.16c-0.027.053-.053,0.107-0.08,0.16h-0.16l-0.239.321-0.32.08-0.079.16h-0.16l-0.16.241H251.5v0.08h-0.24v0.08h-0.24v0.08l-0.319.08v0.08l-0.639.081c-0.026.053-.053,0.106-0.079,0.16h-0.24V215H243.6a1.077,1.077,0,0,0-.239-0.321q0.039-3,.08-6.011a20.868,20.868,0,0,1,0-3.446l0.239-.08a1.749,1.749,0,0,1,.878-0.08,3.165,3.165,0,0,1,1.437.08h0.24v0.08a6.314,6.314,0,0,1,.08,1.843v5.13a1.072,1.072,0,0,1,.319.24,7.694,7.694,0,0,0,1.837-.08h0.479v-0.08h0.239V212.2h0.16v-0.08a3.716,3.716,0,0,0,.639-0.08l0.159-.241,0.32-.08,0.159-.241,0.24-.08v-0.16l0.4-.321v-0.16l0.24-.16v-0.16l0.239-.161v-0.16h0.08q0.039-.4.08-0.8a2.554,2.554,0,0,0,.239-1.442h-0.08v-0.16h-0.079c-0.027-.161-0.054-0.321-0.08-0.481h-0.08c-0.027-.161-0.053-0.321-0.08-0.481h-0.08v-0.161h-0.08v-0.24l-0.159-.08V206.1l-0.32-.241-0.159-.481-0.24-.08c-0.053-.08-0.106-0.16-0.16-0.24l-0.479-.161-0.159-.24-0.559-.08C247.8,204.033,245.151,204.568,243.356,204.26Zm26.906-1.442v0.32a2.889,2.889,0,0,0-.4.481l-0.239.16q-0.081.242-.16,0.481l-0.319.241c-0.2.237,0.089,0.275-.32,0.4v0.08h-0.639V204.9h-0.159l-0.08-.16h-0.16v-0.08l-0.4-.08-0.08-.161H266.43v-0.08h-0.319v0.08l-1.038.081c-0.027.053-.054,0.106-0.08,0.16h-0.16v0.08h-0.16v0.08h-0.239l-0.08.16a1.363,1.363,0,0,1-.559.321,2.925,2.925,0,0,1-.718,1.042q-0.24.721-.479,1.443a2.945,2.945,0,0,0,.159,1.522c0.027,0.214.053,0.428,0.08,0.642h0.08v0.16H263c0.026,0.107.053,0.214,0.08,0.321l0.159,0.08v0.16l0.24,0.16v0.161l0.638,0.561c0.054,0.08.107,0.16,0.16,0.24h0.16v0.08h0.16v0.08h0.159v0.081h0.16l0.08,0.16h0.239v0.08h0.479v0.08a4.989,4.989,0,0,0,1.677-.08V212.2l0.319-.08v-0.08h0.24v-0.081l0.319-.08,0.16-.24,0.239-.08c0.107-.134.213-0.268,0.32-0.4l0.239-.16v-0.161h0.08v-0.16h0.08v-0.16h0.08v-0.161l0.4-.24v-0.16h0.08l0.08-.161h2.635a1.048,1.048,0,0,1,.159.642h-0.08v0.32h-0.079c-0.027.107-.054,0.214-0.08,0.321H272.5v0.16h-0.08v0.24h-0.08v0.161l-0.159.08c-0.027.107-.054,0.214-0.08,0.321l-0.16.08v0.16l-0.24.16V212.6l-0.558.48-0.639.722-0.479.16c-0.053.08-.107,0.16-0.16,0.241l-0.4.08v0.08H269.3v0.08l-0.319.08v0.08l-0.559.08v0.081h-0.24v0.08h-0.319v0.08h-0.4V215h-2.4v-0.08h-0.24v-0.08l-0.639-.08v-0.081h-0.239V214.6l-0.32-.08v-0.08H263.4v-0.08h-0.16v-0.08h-0.159c-0.027-.054-0.054-0.107-0.08-0.161l-0.4-.08-0.24-.32-0.319-.081v-0.08a1.17,1.17,0,0,0-.479-0.32v-0.161l-0.719-.641-0.08-.32-0.16-.08v-0.161l-0.159-.08v-0.24l-0.16-.081v-0.24l-0.16-.08v-0.16h-0.079v-0.161h-0.08v-0.4h-0.08c-0.027-.107-0.053-0.214-0.08-0.321h-0.08V209.79a4.057,4.057,0,0,1-.08-1.122v-1.683h0.08v-0.24h0.08V206.5h0.08c0.027-.187.053-0.374,0.08-0.561h0.08v-0.16l0.159-.08v-0.16h0.08V205.3h0.08c0.027-.107.053-0.214,0.08-0.321h0.08v-0.24l0.159-.08v-0.08l0.16-.08V204.34l0.319-.24v-0.16l0.24-.161a2.238,2.238,0,0,1,1.038-.8c0.046-.161-0.01-0.07.08-0.16v-0.081l0.4-.08c0.026-.053.053-0.107,0.08-0.16h0.159v-0.08h0.16v-0.08h0.24v-0.081h0.159v-0.08l0.479-.08v-0.08h0.16v-0.08l0.559-.08v-0.08h1.277l1.118-.081v0.081h0.479v0.08h0.4v0.08h0.24v0.08c0.226,0.089.436,0.055,0.639,0.16v0.08l0.319,0.081v0.08H269.7v0.08h0.16v0.08A0.917,0.917,0,0,0,270.262,202.818Zm-34.89,2.324a1.17,1.17,0,0,1-.639.08v-0.08l-0.4-.08v-0.081l-0.32-.08v-0.08l-1.357-.32V204.42H232.5v-0.08h-1.118v0.08h-0.4V204.5l-0.319.08v0.08h-0.24a1.259,1.259,0,0,0-.559,1.042,0.807,0.807,0,0,1,.24.481h0.08v0.08h0.239c0.027,0.053.054,0.107,0.08,0.16h0.16v0.08h0.16c0.026,0.054.053,0.107,0.079,0.161h0.16v0.08h0.479v0.08h0.4v0.08h0.32v0.08H232.5v0.08h0.639v0.08h0.639v0.081l0.8,0.16v0.08h0.4c0.053,0.08.107,0.16,0.16,0.241h0.16v0.08h0.4l0.08,0.16,0.239,0.08v0.08h0.16l0.08,0.161h0.159l0.24,0.32,0.319,0.241v0.16l0.16,0.08v0.16h0.08q0.079,0.241.16,0.481h0.079v0.241h0.08v1.843a1.775,1.775,0,0,1-.239.641h-0.08v0.321l-0.16.08V213c-0.053.027-.106,0.054-0.16,0.08v0.161l-0.4.32c-0.026.054-.053,0.107-0.08,0.161H236.25l-0.24.32h-0.159c-0.054.08-.107,0.161-0.16,0.241l-0.319.08v0.08l-0.48.16v0.08h-0.479v0.081h-0.239v0.08h-0.16v0.08l-1.038.08h-1.6v-0.08h-0.4v-0.08l-0.319-.08v-0.081H230.1V214.6l-0.319-.08v-0.08l-0.559-.08c-0.027-.054-0.054-0.107-0.08-0.16l-0.479-.161c-0.027-.053-0.053-0.107-0.08-0.16l-0.4-.08-0.16-.241h-0.16v-0.08h-0.159V213.4c-0.219-.136-0.148.073-0.24-0.24a1.3,1.3,0,0,1-.559-0.481c0.046-.161-0.009-0.07.08-0.161a0.6,0.6,0,0,1,.479-0.48,1.969,1.969,0,0,1,.559-0.722h0.08v-0.16l0.319-.241v-0.08H228.9l0.479,0.4c0.054,0.08.107,0.16,0.16,0.24l0.319,0.081c0.054,0.08.107,0.16,0.16,0.24l0.559,0.08v0.08h0.24v0.081h0.159v0.08l0.479,0.08v0.08h0.32v0.08h1.357l1.2-.561c0.09-.072.187-0.369,0.319-0.481v-0.8l-0.24-.161v-0.08h-0.159c-0.027-.053-0.054-0.107-0.08-0.16h-0.16v-0.08h-0.159v-0.08h-0.24v-0.08l-0.319-.081v-0.08l-2.555-.32v-0.081l-0.719-.08v-0.08h-0.16v-0.08h-0.239v-0.08l-0.479-.16v-0.081l-0.32-.08v-0.08l-0.239-.08c-0.027-.053-0.053-0.107-0.08-0.16h-0.16l-0.4-.481-0.4-.321c-0.027-.107-0.053-0.214-0.08-0.32l-0.239-.161v-0.16h-0.08a6.07,6.07,0,0,1-.16-1.523h0.08v-0.24h0.08c0.026-.321.053-0.641,0.08-0.962l0.159-.08v-0.16h0.08v-0.161h0.08v-0.16h0.08v-0.16l0.319-.241,0.4-.481h0.16l0.24-.32H228.9v-0.08l0.479-.161V202.1l0.719-.16v-0.08h0.559a8.873,8.873,0,0,1,2.235-.08v0.08h0.4v0.08h0.319v0.08h0.319v0.08h0.32v0.08h0.159v0.08l0.559,0.081v0.08l0.4,0.08,0.079,0.16h0.16v0.08l0.4,0.081c0.027,0.053.053,0.106,0.08,0.16a0.543,0.543,0,0,1,.4.4h0.08v0.24a1.336,1.336,0,0,0-.16.24l-0.638.561v0.161h-0.08A1.158,1.158,0,0,0,235.372,205.142Zm31.138,1.282h0.4v0.08H272.5a0.116,0.116,0,0,1,.16-0.08v0.08a0.24,0.24,0,0,1,.239.161c0.331,0.331.173,1.722,0.16,2.244-0.638.33-2.919,0.165-3.912,0.16a1.318,1.318,0,0,1-.719.08,12.434,12.434,0,0,1-2.076-.08c-0.027-.08-0.053-0.16-0.08-0.24h-0.08v-0.642h0.08c-0.026-.08-0.053-0.16-0.08-0.24,0.027-.134.054-0.267,0.08-0.4q-0.039-.441-0.08-0.881A1.05,1.05,0,0,0,266.51,206.424Z" transform="translate(-221 -85)"/>
</svg>
