<?xml version="1.0" standalone="no"?>
<!DOCTYPE svg PUBLIC "-//W3C//DTD SVG 20010904//EN"
 "http://www.w3.org/TR/2001/REC-SVG-20010904/DTD/svg10.dtd">
<svg version="1.0" xmlns="http://www.w3.org/2000/svg"
 width="700.000000pt" height="700.000000pt" viewBox="0 0 700.000000 700.000000"
 preserveAspectRatio="xMidYMid meet">
<metadata>
Created by potrace 1.11, written by Peter Selinger 2001-2013
</metadata>
<g transform="translate(0.000000,700.000000) scale(0.100000,-0.100000)"
fill="#000000" stroke="none">
<path d="M3215 6989 c-1004 -86 -1899 -579 -2513 -1387 -373 -489 -613 -1100
-684 -1737 -17 -154 -17 -585 0 -730 44 -370 129 -694 269 -1020 276 -645 764
-1212 1365 -1586 447 -278 924 -443 1483 -511 130 -16 600 -16 730 0 451 55
818 163 1195 351 729 364 1312 973 1639 1714 144 325 238 675 283 1052 16 139
16 595 0 730 -108 889 -477 1619 -1122 2217 -507 471 -1171 785 -1865 882
-249 35 -546 45 -780 25z m-485 -1693 c255 -79 792 -254 807 -264 7 -5 14 -65
19 -174 l7 -167 446 -110 c756 -188 1315 -331 1322 -339 4 -4 10 -270 13 -592
3 -322 9 -807 12 -1077 l6 -493 -1863 0 -1862 0 6 753 c4 413 10 948 14 1188
l6 435 404 430 c434 462 450 477 467 471 6 -3 94 -30 196 -61z"/>
<path d="M2520 5024 c0 -159 3 -420 7 -580 l6 -290 1371 -274 c754 -150 1379
-276 1389 -278 16 -4 17 14 15 309 l-3 313 -90 22 c-84 20 -225 54 -700 169
-359 87 -970 236 -988 241 -17 5 -18 19 -17 167 1 89 1 169 1 178 -1 11 -25
22 -83 38 -146 39 -842 248 -894 268 -12 4 -14 -40 -14 -283z"/>
<path d="M2096 4870 l-390 -427 3 -399 c1 -219 5 -401 7 -403 4 -4 213 135
610 406 l152 103 7 402 c3 222 5 480 3 574 l-3 172 -389 -428z"/>
<path d="M2534 3634 c4 -241 8 -440 10 -441 4 -5 117 -18 1591 -182 637 -72
1161 -129 1162 -127 2 1 6 161 10 354 4 241 3 352 -4 352 -9 0 -366 62 -1448
250 -27 5 -324 56 -660 114 -335 59 -623 109 -639 112 l-29 6 7 -438z"/>
<path d="M2095 3836 l-370 -214 -3 -366 -2 -366 47 18 c224 86 681 264 689
270 13 8 29 872 17 871 -5 0 -174 -96 -378 -213z"/>
<path d="M2541 2629 c2 -252 7 -461 12 -465 4 -4 623 -8 1375 -8 l1367 -1 3
352 2 353 -22 4 c-13 3 -142 14 -288 25 -222 17 -1734 139 -2289 184 l-163 13
3 -457z"/>
<path d="M2093 2980 c-194 -54 -357 -101 -363 -105 -16 -10 -14 -735 3 -736
19 -2 50 -1 394 12 l321 13 6 160 c11 292 12 756 1 755 -5 0 -168 -45 -362
-99z"/>
</g>
</svg>
